<?xml version="1.0" encoding="utf-8"?>
<!-- Generator: Adobe Illustrator 28.1.0, SVG Export Plug-In . SVG Version: 6.00 Build 0)  -->
<svg version="1.1" id="Layer_1" xmlns="http://www.w3.org/2000/svg" xmlns:xlink="http://www.w3.org/1999/xlink" x="0px" y="0px"
	 viewBox="0 0 216 216" style="enable-background:new 0 0 216 216;" xml:space="preserve">
<style type="text/css">
	.st0{fill:#464C20;}
	.st1{fill:url(#SVGID_1_);}
	.st2{fill:url(#SVGID_00000081612013519283305810000006247015099996043170_);}
	.st3{fill:#222800;}
	.st4{fill:url(#SVGID_00000003071776665225280850000016517127246804522127_);}
	.st5{fill:url(#SVGID_00000054979672411632427030000004395917477442268043_);}
	.st6{fill:none;}
</style>
<g>
	<path class="st0" d="M141.1,108c0,18.3-14.8,33.1-33.1,33.1c-18.3,0-33.1-14.8-33.1-33.1c0-18.3,14.8-33.1,33.1-33.1
		C126.3,74.9,141.1,89.7,141.1,108z"/>
	<path class="st0" d="M141.1,108c0,18.3-14.8,33.1-33.1,33.1c-18.3,0-33.1-14.8-33.1-33.1c0-18.3,14.8-33.1,33.1-33.1
		C126.3,74.9,141.1,89.7,141.1,108z"/>
	<path class="st0" d="M141.1,108c0,18.3-14.8,33.1-33.1,33.1c-18.3,0-33.1-14.8-33.1-33.1c0-18.3,14.8-33.1,33.1-33.1
		C126.3,74.9,141.1,89.7,141.1,108z"/>
	<path class="st0" d="M141.1,108c0,18.3-14.8,33.1-33.1,33.1c-18.3,0-33.1-14.8-33.1-33.1c0-18.3,14.8-33.1,33.1-33.1
		C126.3,74.9,141.1,89.7,141.1,108z"/>
	<path class="st0" d="M108,25.6c-45.5,0-82.4,36.9-82.4,82.4c0,45.5,36.9,82.4,82.4,82.4c45.5,0,82.4-36.9,82.4-82.4
		C190.4,62.5,153.5,25.6,108,25.6z M108,168.6c-33.5,0-60.6-27.1-60.6-60.6c0-33.5,27.2-60.6,60.6-60.6c33.5,0,60.6,27.2,60.6,60.6
		C168.6,141.5,141.5,168.6,108,168.6z"/>
	<radialGradient id="SVGID_1_" cx="108" cy="108" r="108" gradientUnits="userSpaceOnUse">
		<stop  offset="0.5" style="stop-color:#777B3E"/>
		<stop  offset="0.7646" style="stop-color:#464C20"/>
		<stop  offset="1" style="stop-color:#222800"/>
	</radialGradient>
	<path class="st1" d="M108,0C48.4,0,0,48.4,0,108c0,59.6,48.4,108,108,108c59.7,0,108-48.4,108-108C216,48.4,167.6,0,108,0z
		 M108,190.4c-45.5,0-82.4-36.9-82.4-82.4c0-45.5,36.9-82.4,82.4-82.4c45.5,0,82.4,36.9,82.4,82.4
		C190.4,153.5,153.5,190.4,108,190.4z"/>
	
		<radialGradient id="SVGID_00000034085775371590591080000008906681168034582692_" cx="108" cy="108" r="60.6356" gradientUnits="userSpaceOnUse">
		<stop  offset="0.5" style="stop-color:#777B3E"/>
		<stop  offset="0.7646" style="stop-color:#464C20"/>
		<stop  offset="1" style="stop-color:#222800"/>
	</radialGradient>
	<path style="fill:url(#SVGID_00000034085775371590591080000008906681168034582692_);" d="M108,47.4c-33.5,0-60.6,27.2-60.6,60.6
		c0,33.5,27.2,60.6,60.6,60.6c33.5,0,60.6-27.1,60.6-60.6C168.6,74.5,141.5,47.4,108,47.4z M108,154.2c-25.5,0-46.2-20.7-46.2-46.2
		c0-25.5,20.7-46.2,46.2-46.2s46.2,20.7,46.2,46.2C154.2,133.5,133.5,154.2,108,154.2z"/>
	<path class="st3" d="M141.1,108c0,18.3-14.8,33.1-33.1,33.1c-18.3,0-33.1-14.8-33.1-33.1c0-18.3,14.8-33.1,33.1-33.1
		C126.3,74.9,141.1,89.7,141.1,108z"/>
	
		<radialGradient id="SVGID_00000135683180366779316590000001296645945847874958_" cx="108" cy="108" r="82.4145" gradientUnits="userSpaceOnUse">
		<stop  offset="0.5" style="stop-color:#777B3E"/>
		<stop  offset="0.7646" style="stop-color:#464C20"/>
		<stop  offset="1" style="stop-color:#222800"/>
	</radialGradient>
	<path style="fill:url(#SVGID_00000135683180366779316590000001296645945847874958_);" d="M108,25.6c-45.5,0-82.4,36.9-82.4,82.4
		c0,45.5,36.9,82.4,82.4,82.4c45.5,0,82.4-36.9,82.4-82.4C190.4,62.5,153.5,25.6,108,25.6z M108,168.6c-33.5,0-60.6-27.1-60.6-60.6
		c0-33.5,27.2-60.6,60.6-60.6c33.5,0,60.6,27.2,60.6,60.6C168.6,141.5,141.5,168.6,108,168.6z"/>
	
		<radialGradient id="SVGID_00000160905926050824489410000000556184877446234773_" cx="108" cy="108" r="46.2026" gradientUnits="userSpaceOnUse">
		<stop  offset="0.5" style="stop-color:#777B3E"/>
		<stop  offset="0.7646" style="stop-color:#464C20"/>
		<stop  offset="1" style="stop-color:#222800"/>
	</radialGradient>
	<path style="fill:url(#SVGID_00000160905926050824489410000000556184877446234773_);" d="M108,61.8c-25.5,0-46.2,20.7-46.2,46.2
		c0,25.5,20.7,46.2,46.2,46.2s46.2-20.7,46.2-46.2C154.2,82.5,133.5,61.8,108,61.8z M108,141.1c-18.3,0-33.1-14.8-33.1-33.1
		c0-18.3,14.8-33.1,33.1-33.1c18.3,0,33.1,14.8,33.1,33.1C141.1,126.3,126.3,141.1,108,141.1z"/>
</g>
<rect x="12" y="12" class="st6" width="192" height="192"/>
</svg>
