<?xml version="1.0" encoding="utf-8"?>
<!-- Generator: Adobe Illustrator 28.1.0, SVG Export Plug-In . SVG Version: 6.00 Build 0)  -->
<svg version="1.1" id="Layer_1" xmlns="http://www.w3.org/2000/svg" xmlns:xlink="http://www.w3.org/1999/xlink" x="0px" y="0px"
	 viewBox="0 0 1728 500" style="enable-background:new 0 0 1728 500;" xml:space="preserve">
<style type="text/css">
	.st0{fill:#FFFFFF;}
</style>
<rect class="st0" width="1728" height="500"/>
<g>
	<path d="M524.7,175.6c0-3.7-0.3-7.5-0.9-11.2c-2.5-14.7-11.4-23.8-26.1-26.5c-3.9-0.7-7.9-0.9-11.9-0.9c-12.8-0.1-25.6,0-38.4,0
		h-3.7c-0.2-1.2-0.3-2-0.5-2.9h-26.5c0.1,0.8,0.2,1.5,0.2,2.3c0,9.2,0,18.5,0,27.8c0,0.9-0.1,1.7-0.2,2.8h-48.9v-28.3
		c-2.6-0.8-22.7-1-26.4-0.2v28.2c-2.7,0.7-40.8,0.8-44.3,0.1c-0.1-10.8-0.2-21.7-0.2-32.5h-26.5c0.1,1.2,0.2,2.4,0.2,3.6v57.8h158.2
		c1.2,0,2.3,0.1,3.5,0.2v14.5H283.3c-4.1,0-8.3-0.1-12.4,0.1c-0.6,5.5-0.4,25.7,0.3,28.3h41.9c4.7,0,9.5,0,14.2,0
		c4.6,0,9.2-0.1,13.8,0v21.2h-70.1c-0.7,4.2-0.6,26,0.2,28.5h160.9c0.7,4.9,0.5,25.3-0.2,27.5c-5.9,0.6-132.1,0.3-134.9-0.4
		c0-3.3,0-6.7,0-10.1c0-3.5,0.1-7-0.1-10.4c-6.6-0.6-23.7-0.4-26.1,0.3c-0.7,6.2-0.4,67.9,0.3,70.2c5.4,0.6,23.4,0.4,25.9-0.4v-20.4
		h135.5v19.9H463v-62c0-3.4,0-6.8,0-10.2c0-3.4-0.1-6.8,0.1-10.3h3.7c6.5,0,13,0.1,19.5-0.1c4.3-0.1,8.6-0.3,12.8-1.2
		c12.1-2.3,20.1-9.5,23.6-21.4c1.5-5,2-10.2,2-15.3C524.8,221.3,524.8,198.4,524.7,175.6z M437.1,338.3c-7,0.1-13.9,0-20.9,0.1
		H291.1c-0.3,3.6-0.1,7.1-0.2,10.6c0,3.4,0,6.8,0,10.5h-13.8v-58.3h13.6c0.4,6.9,0,13.8,0.3,21.1h4.4c45.8,0,91.6,0,137.3,0
		c1.4,0,2.8,0.1,4.3,0.2V338.3z M436.9,281.5c-2.4,0.6-155.2,0.8-159.3,0.2c-0.7-2.3-0.8-11.6-0.2-15.8c7.7,0,15.5,0,23.3,0h46.8
		v-33.2c-7.8-0.4-15.6-0.1-23.4-0.2c-7.7-0.1-15.5,0-23.2,0h-23.3c-0.7-2.6-0.9-11.5-0.4-15.7c2.5-0.7,156.5-0.7,159.8,0v15.6h-75.2
		v33.4c3.5,0.2,7,0.1,10.4,0.1c3.6,0,7.3,0,10.9,0h53.5C437.4,268.6,437.5,278.3,436.9,281.5z M432.4,239v20.2
		c-2.5,0.7-59.3,0.9-64.1,0.3c-0.7-2.3-0.9-14.3-0.4-20.3c0.1-0.1,0.1-0.2,0.2-0.2c0.1-0.1,0.2-0.2,0.2-0.2c0.6-0.1,1.1-0.2,1.6-0.2
		c20.4,0,40.7,0,61.1,0C431.5,238.7,431.8,238.9,432.4,239z M437,188.8c-2.5,0.6-153.1,0.9-159.4,0.3c-0.8-2.2-1.1-41.5-0.4-48.1
		c2.3-0.8,9.4-0.9,13.7-0.2v32.3h56.7c0.4-3.1,0.1-6.3,0.2-9.4c0-3.2,0-6.4,0-9.6v-9.7h13.8c0.3,3.1,0.1,6.3,0.1,9.4
		c0.1,3.2,0,6.4,0,9.6v9.7h61.6v-32.5h13.4C437.4,143.1,437.5,184.8,437,188.8z M494.3,239.5c0,2.4-0.2,4.9-0.7,7.2
		c-0.9,4-3.5,6.5-7.6,7.4c-0.7,0.1-1.3,0.4-2,0.4c-6.8,0-13.6,0-20.3,0c-0.2-0.2-0.3-0.3-0.4-0.4c-0.1-0.1-0.1-0.2-0.2-0.2
		c-0.1-0.4-0.1-0.9-0.1-1.3c0-28.8,0-57.7,0-86.6c0-0.3,0.1-0.6,0.3-1.3c6.8,0,13.4-0.4,20,0.1c6.6,0.5,10.4,4.9,10.9,11.6
		c0.1,1.1,0.1,2.2,0.1,3.3C494.3,199.6,494.3,219.5,494.3,239.5z"/>
	<path d="M1457.6,249.9c-0.2,0.7-0.5,1.4-0.6,2.2c-0.3,4.3-1.5,8.5-3.3,12.4c-4.2,9.3-11.7,14.4-21.5,16.4
		c-4.3,0.8-8.8,1.1-13.1,1.2c-6.5,0.2-13,0.1-19.5,0.1c-1.1,0-2.2,0-3.6,0c-0.2,4.1-0.1,7.9-0.1,11.7c0,4,0,7.9,0,11.9
		c0,3.9,0,7.7,0,11.6c0,4,0,7.9,0,11.9c0,3.9,0,7.7,0,11.6c0,4,0,7.9,0,11.9c0,3.8,0,7.7,0,11.5c-2.5,0.8-26.4,1-30.3,0.2
		c0-75.6,0-151.3,0-227.4c1.2,0,2.3,0,3.3,0c16.8,0,33.5-0.1,50.3,0.1c4.5,0,9.1,0.4,13.5,1.3c13.1,2.9,20.7,11.4,23.6,24.4
		c0.5,2.3,0.9,4.7,1.3,7.1C1457.6,196.5,1457.6,223.2,1457.6,249.9z M1396.2,164.7c-0.2,0.6-0.3,1-0.3,1.3c0,28.9,0,57.7,0,86.6
		c0,0.4,0.1,0.9,0.2,1.3c0,0.1,0.1,0.2,0.2,0.3c0.1,0.1,0.2,0.1,0.4,0.4c6.7,0,13.5,0.2,20.3-0.1c5.5-0.3,8.6-3.2,9.8-8.7
		c0.4-2,0.5-4.1,0.5-6.2c0-19.9,0-39.9,0-59.8c0-1.1,0-2.2-0.1-3.3c-0.4-6.6-4.3-11.1-10.9-11.6
		C1409.6,164.3,1403,164.7,1396.2,164.7z"/>
	<path d="M821.2,364.7c-10,0-19.7,0-29.9,0c-0.1-1.2-0.2-2.3-0.2-3.5c0-12.9,0-25.8-0.1-38.7c0-2.2-0.3-4.4-0.9-6.5
		c-9.9-31.9-19.8-63.7-29.8-95.6c-0.4-1.2-0.9-2.4-1.8-3.5c0,49.1,0,98.3,0,147.6c-10.1,0-19.9,0-29.8,0c-0.7-2.4-1-221-0.3-227
		c2.3-0.7,24.3-0.9,30.4-0.3c10.5,35.8,21.1,71.7,31.7,107.7c0.2,0,0.5-0.1,0.7-0.1c0-35.8,0-71.6,0-107.2
		c2.7-0.7,25.9-0.8,29.9-0.3c0.1,0.1,0.2,0.1,0.2,0.2c0.1,0.1,0.1,0.2,0.1,0.3c0.1,0.3,0.1,0.6,0.1,1c0,74.8,0,149.7,0,224.5
		C821.5,363.6,821.4,364,821.2,364.7z"/>
	<path d="M1338.4,250.9c0,24.5,0,48.9,0,73.4c0,5.9-0.4,11.7-2,17.3c-3.6,12.2-11.6,19.4-24,22c-3.1,0.6-6.3,1.1-9.5,1.1
		c-12.1,0-24.3-0.1-36.4-0.4c-4.8-0.1-9.3-1.6-13.6-3.8c-7.9-4-12.7-10.5-14.9-18.9c-1.1-4.3-1.4-8.9-2-13.4
		c-0.2-1.5-0.1-3.1-0.1-4.6c0-48.5,0-97,0.1-145.5c0-5,0.4-10.2,1.3-15.1c2.7-14.7,12.8-23.9,27.7-25.5c2.3-0.3,4.6-0.5,6.9-0.5
		c11.2,0,22.5,0,33.7,0.2c2.9,0.1,6,0.5,8.8,1.3c11.3,2.9,18.7,10.1,21.8,21.3c1.1,4,1.5,8.2,2,12.4c0.3,2.3,0.1,4.6,0.1,6.9
		C1338.4,203.1,1338.4,227,1338.4,250.9z M1308,251.3c0-23.6,0-47.2,0-70.8c0-1.5,0-3.1-0.1-4.6c-0.7-6.6-4.7-10.8-11.3-11.2
		c-6.4-0.3-12.8-0.3-19.2,0c-6.2,0.3-9.8,4.1-10.6,10.3c-0.2,1.7-0.3,3.5-0.3,5.3c0,47.1,0,94.1,0,141.2c0,1.4,0.1,2.9,0.2,4.3
		c0.8,7.4,4.3,11,11.7,11.4c6.4,0.3,12.8,0.3,19.2,0c5.8-0.3,9.1-3.4,10-9.2c0.4-2,0.4-4.2,0.4-6.3
		C1308,298.2,1308,274.8,1308,251.3z"/>
	<path d="M579.6,364.6c-10.3,0-20.2,0-30.3,0c0-75.8,0-151.5,0-227.4c1-0.1,2-0.2,2.9-0.2c18.3,0,36.6-0.1,54.9,0
		c3.6,0,7.3,0.3,10.9,0.9c12.3,2.3,20,9.7,23.1,21.8c1.1,4.4,1.9,9.1,1.9,13.7c0.2,19.9,0.2,39.9,0,59.8c0,4.6-0.5,9.3-1.4,13.8
		c-1.9,10-6.6,18.2-16.5,23c7.2,31.5,14.3,62.8,21.5,94.5c-9.7,0-18.9,0-28.6,0c-2.5-10-4.5-20.2-6.8-30.3
		c-2.3-10.1-4.5-20.2-6.8-30.3c-2.3-10.2-4.5-20.4-6.8-30.8c-6,0-11.8,0-18,0c-0.3,10.1-0.1,20.2-0.1,30.3c0,10.1,0,20.3,0,30.4
		C579.6,344.1,579.6,354.2,579.6,364.6z M579.8,246.5c7.7,0,15.1,0.3,22.6-0.1c4.6-0.2,8.1-3,9.5-7.6c0.9-3,1.4-6.3,1.4-9.4
		c0.1-15.6,0.1-31.3,0-46.9c0-2.4-0.2-4.9-0.7-7.2c-1.1-5.9-4.7-9.6-10-10.5c-1.4-0.2-2.9-0.2-4.3-0.2c-5.3,0-10.6,0-15.9,0
		c-0.8,0-1.7,0.1-2.7,0.2C579.8,192.1,579.8,219.2,579.8,246.5z"/>
	<path d="M1110.9,137c10,0,20,0,30.2,0c0,32.5,0,64.5,0,96.5c2.6,0.8,31.3,1,37.2,0.4c0.1-1.3,0.2-2.7,0.2-4c0-29.4,0-58.9,0-88.3
		c0-1.3,0-2.6,0-3.8c2.6-0.8,26.7-0.9,30.3-0.2c0,75.5,0,151.1,0,226.7c-2.2,0.8-25.5,1-30.3,0.2c-0.1-8.5,0-17,0-25.6
		c0-8.5,0-17,0-25.5c0-8.6,0-17.2,0-25.8c0-8.5,0-16.9,0-25.3c-2.7-0.7-31.5-0.9-37.3-0.3c0,1.2-0.1,2.5-0.1,3.7
		c0,31.6,0,63.3,0,94.9c0,1.3,0,2.6,0,4c-10.3,0-20.1,0-30.2,0C1110.9,288.8,1110.9,213.2,1110.9,137z"/>
	<path d="M1084.7,198c-9.9,0-19.7,0-29.8,0c-0.1-0.9-0.3-1.9-0.3-2.8c0-5,0-9.9,0-14.9c0-1.7,0-3.3-0.2-5
		c-0.6-6.2-4.5-10.1-10.6-10.7c-3.1-0.3-6.2-0.3-9.3,0c-5.9,0.5-9.7,4-10.7,9.9c-0.3,1.7-0.4,3.5-0.4,5.3c0,11.6,0,23.1,0,34.7
		c0,0.7,0,1.3,0,2c0,4.4,1.9,7.9,5.5,10.4c2.5,1.7,5.1,3.5,7.8,5c11.1,6.1,22.3,12.1,33.4,18.2c2.4,1.3,4.6,3,6.8,4.6
		c5.1,3.7,7.4,8.9,7.9,15c0.1,1.1,0.2,2.2,0.2,3.3c0,19.1,0.1,38.1-0.1,57.2c0,4-0.8,8.1-1.9,12c-3.2,11.9-11.3,18.9-23.2,21.4
		c-3.2,0.7-6.6,1.1-9.8,1.1c-8.7,0.1-17.4,0.2-26.1-0.4c-14.6-0.9-24.7-9.4-28.3-23.6c-1.1-4.5-1.7-9.1-2-13.7
		c-0.3-5-0.1-10.1-0.1-15.3c9.9,0,19.6,0,29.5,0c0.1,0.9,0.3,1.7,0.3,2.6c0,2.9,0,5.7,0,8.6c0.1,1.8,0.2,3.5,0.5,5.3
		c0.8,4.6,3.7,7.4,8.2,8.5c4.5,1,9,1,13.5,0.3c5.3-0.8,8.2-4.1,8.9-9.6c0.2-1.9,0.2-3.7,0.2-5.6c0-11.5,0.1-22.9,0-34.4
		c0-9.1,0.5-9.7-8.9-15.6c-6.9-4.3-14.2-8.1-21.3-12.1c-4.6-2.6-9.3-5-13.9-7.6c-2.7-1.5-5.2-3.3-7.8-5c-4.8-3.2-7.3-7.9-8.3-13.4
		c-0.5-2.6-0.8-5.2-0.8-7.9c-0.1-17.6-0.1-35.3,0.1-52.9c0-4.1,0.7-8.4,1.8-12.4c3.5-13.5,12.8-21.6,26.7-22.9
		c11.3-1.1,22.7-1.1,34,0c11.9,1.2,21.2,6.9,25.7,18.5c1.5,4,2.7,8.3,2.9,12.5c0.5,9.5,0.3,18.9,0.4,28.4
		C1085,197.2,1084.9,197.4,1084.7,198z"/>
	<path d="M898.5,364.7c-10,0-19.9,0-30.1,0c0-33.4,0-66.6,0-99.9c0-33.3,0-66.5,0-100.2c-9.8,0-19.3,0-28.7,0
		c-0.8-2.8-0.9-23.9-0.2-27.4c29.2,0,58.5,0,87.8,0c0.6,2.5,0.8,21.7,0.3,27.2c-3.1,0.3-6.2,0.1-9.4,0.1c-3.1,0-6.2,0-9.3,0
		c-3.2,0-6.4,0-9.3,0c-0.3,0.4-0.4,0.4-0.5,0.5c-0.1,0.1-0.1,0.2-0.1,0.3c0,0.2-0.1,0.4-0.1,0.7c0,0.1,0,0.2,0,0.3
		c0,0.1,0,0.2,0,0.3c0,0.3,0,0.7,0,1c0,65.1,0,130.3,0,195.4c0,0.1,0,0.2,0,0.3c0,0.1,0,0.2,0,0.3c0,0.1,0,0.2-0.1,0.3
		C898.7,364.1,898.6,364.2,898.5,364.7z"/>
	<path d="M669.2,364.5c0-75.7,0-151.3,0-227.2c10,0,19.9,0,29.7,0c0.7,2.4,1,220.4,0.3,227.1C697,364.9,673.4,365.1,669.2,364.5z"/>
</g>
</svg>
