<?xml version="1.0" encoding="utf-8"?>
<!-- Generator: Adobe Illustrator 28.1.0, SVG Export Plug-In . SVG Version: 6.00 Build 0)  -->
<svg version="1.1" id="Layer_1" xmlns="http://www.w3.org/2000/svg" xmlns:xlink="http://www.w3.org/1999/xlink" x="0px" y="0px"
	 viewBox="0 0 216 216" style="enable-background:new 0 0 216 216;" xml:space="preserve">
<g>
	<path d="M51.4,93.8c0-0.6-0.1-1.3-0.2-1.9c-0.4-2.5-1.9-4-4.4-4.4c-0.6-0.1-1.3-0.2-2-0.2c-2.1,0-4.3,0-6.4,0h-0.6
		c0-0.2-0.1-0.3-0.1-0.5h-4.4c0,0.1,0,0.3,0,0.4c0,1.5,0,3.1,0,4.6c0,0.1,0,0.3,0,0.5h-8.2v-4.7c-0.4-0.1-3.8-0.2-4.4,0v4.7
		c-0.4,0.1-6.8,0.1-7.4,0c0-1.8,0-3.6,0-5.4H9c0,0.2,0,0.4,0,0.6v9.6h26.4c0.2,0,0.4,0,0.6,0v2.4H11.1c-0.7,0-1.4,0-2.1,0
		c-0.1,0.9-0.1,4.3,0.1,4.7h7c0.8,0,1.6,0,2.4,0c0.8,0,1.5,0,2.3,0v3.5H9.1c-0.1,0.7-0.1,4.3,0,4.8H36c0.1,0.8,0.1,4.2,0,4.6
		c-1,0.1-22,0.1-22.5-0.1c0-0.5,0-1.1,0-1.7c0-0.6,0-1.2,0-1.7c-1.1-0.1-4-0.1-4.3,0.1c-0.1,1-0.1,11.3,0.1,11.7
		c0.9,0.1,3.9,0.1,4.3-0.1V122h22.6v3.3h5.1V115c0-0.6,0-1.1,0-1.7c0-0.6,0-1.1,0-1.7h0.6c1.1,0,2.2,0,3.3,0c0.7,0,1.4-0.1,2.1-0.2
		c2-0.4,3.4-1.6,3.9-3.6c0.2-0.8,0.3-1.7,0.3-2.6C51.4,101.5,51.4,97.6,51.4,93.8z M36.8,121c-1.2,0-2.3,0-3.5,0H12.4
		c-0.1,0.6,0,1.2,0,1.8c0,0.6,0,1.1,0,1.7h-2.3v-9.7h2.3c0.1,1.2,0,2.3,0,3.5h0.7c7.6,0,15.3,0,22.9,0c0.2,0,0.5,0,0.7,0V121z
		 M36.8,111.5c-0.4,0.1-25.9,0.1-26.6,0c-0.1-0.4-0.1-1.9,0-2.6c1.3,0,2.6,0,3.9,0h7.8v-5.5c-1.3-0.1-2.6,0-3.9,0
		c-1.3,0-2.6,0-3.9,0h-3.9c-0.1-0.4-0.2-1.9-0.1-2.6c0.4-0.1,26.1-0.1,26.7,0v2.6H24.2v5.6c0.6,0,1.2,0,1.7,0c0.6,0,1.2,0,1.8,0h8.9
		C36.9,109.4,36.9,111,36.8,111.5z M36,104.4v3.4c-0.4,0.1-9.9,0.1-10.7,0.1c-0.1-0.4-0.2-2.4-0.1-3.4c0,0,0,0,0,0c0,0,0,0,0,0
		c0.1,0,0.2,0,0.3,0c3.4,0,6.8,0,10.2,0C35.9,104.4,35.9,104.4,36,104.4z M36.8,96c-0.4,0.1-25.5,0.2-26.6,0.1
		c-0.1-0.4-0.2-6.9-0.1-8c0.4-0.1,1.6-0.2,2.3,0v5.4h9.5c0.1-0.5,0-1,0-1.6c0-0.5,0-1.1,0-1.6v-1.6h2.3c0.1,0.5,0,1,0,1.6
		c0,0.5,0,1.1,0,1.6v1.6h10.3V88h2.2C36.8,88.4,36.9,95.4,36.8,96z M46.3,104.5c0,0.4,0,0.8-0.1,1.2c-0.2,0.7-0.6,1.1-1.3,1.2
		c-0.1,0-0.2,0.1-0.3,0.1c-1.1,0-2.3,0-3.4,0c0,0,0,0-0.1-0.1c0,0,0,0,0,0c0-0.1,0-0.1,0-0.2c0-4.8,0-9.6,0-14.4
		c0-0.1,0-0.1,0.1-0.2c1.1,0,2.2-0.1,3.3,0c1.1,0.1,1.7,0.8,1.8,1.9c0,0.2,0,0.4,0,0.5C46.3,97.8,46.3,101.2,46.3,104.5z"/>
	<path d="M207,106.2c0,0.1-0.1,0.2-0.1,0.4c-0.1,0.7-0.2,1.4-0.5,2.1c-0.7,1.5-2,2.4-3.6,2.7c-0.7,0.1-1.5,0.2-2.2,0.2
		c-1.1,0-2.2,0-3.3,0c-0.2,0-0.4,0-0.6,0c0,0.7,0,1.3,0,2c0,0.7,0,1.3,0,2c0,0.6,0,1.3,0,1.9c0,0.7,0,1.3,0,2c0,0.6,0,1.3,0,1.9
		c0,0.7,0,1.3,0,2c0,0.6,0,1.3,0,1.9c-0.4,0.1-4.4,0.2-5,0c0-12.6,0-25.2,0-37.9c0.2,0,0.4,0,0.6,0c2.8,0,5.6,0,8.4,0
		c0.7,0,1.5,0.1,2.2,0.2c2.2,0.5,3.5,1.9,3.9,4.1c0.1,0.4,0.1,0.8,0.2,1.2C207,97.3,207,101.8,207,106.2z M196.8,92
		c0,0.1-0.1,0.2-0.1,0.2c0,4.8,0,9.6,0,14.4c0,0.1,0,0.1,0,0.2c0,0,0,0,0,0c0,0,0,0,0.1,0.1c1.1,0,2.3,0,3.4,0
		c0.9,0,1.4-0.5,1.6-1.4c0.1-0.3,0.1-0.7,0.1-1c0-3.3,0-6.7,0-10c0-0.2,0-0.4,0-0.6c-0.1-1.1-0.7-1.9-1.8-1.9
		C199,92,197.9,92,196.8,92z"/>
	<path d="M100.9,125.4c-1.7,0-3.3,0-5,0c0-0.2,0-0.4,0-0.6c0-2.2,0-4.3,0-6.5c0-0.4-0.1-0.7-0.2-1.1c-1.6-5.3-3.3-10.6-5-15.9
		c-0.1-0.2-0.1-0.4-0.3-0.6c0,8.2,0,16.4,0,24.6c-1.7,0-3.3,0-5,0c-0.1-0.4-0.2-36.9-0.1-37.9c0.4-0.1,4.1-0.2,5.1,0
		c1.8,6,3.5,12,5.3,18c0,0,0.1,0,0.1,0c0-6,0-11.9,0-17.9c0.5-0.1,4.3-0.1,5,0c0,0,0,0,0,0c0,0,0,0,0,0c0,0.1,0,0.1,0,0.2
		c0,12.5,0,25,0,37.4C100.9,125.2,100.9,125.2,100.9,125.4z"/>
	<path d="M187.1,106.4c0,4.1,0,8.2,0,12.2c0,1-0.1,1.9-0.3,2.9c-0.6,2-1.9,3.2-4,3.7c-0.5,0.1-1.1,0.2-1.6,0.2c-2,0-4,0-6.1-0.1
		c-0.8,0-1.6-0.3-2.3-0.6c-1.3-0.7-2.1-1.8-2.5-3.1c-0.2-0.7-0.2-1.5-0.3-2.2c0-0.3,0-0.5,0-0.8c0-8.1,0-16.2,0-24.3
		c0-0.8,0.1-1.7,0.2-2.5c0.5-2.5,2.1-4,4.6-4.3c0.4,0,0.8-0.1,1.2-0.1c1.9,0,3.8,0,5.6,0c0.5,0,1,0.1,1.5,0.2
		c1.9,0.5,3.1,1.7,3.6,3.6c0.2,0.7,0.3,1.4,0.3,2.1c0,0.4,0,0.8,0,1.2C187.1,98.4,187.1,102.4,187.1,106.4z M182,106.5
		c0-3.9,0-7.9,0-11.8c0-0.3,0-0.5,0-0.8c-0.1-1.1-0.8-1.8-1.9-1.9c-1.1-0.1-2.1-0.1-3.2,0c-1,0.1-1.6,0.7-1.8,1.7
		c0,0.3-0.1,0.6-0.1,0.9c0,7.9,0,15.7,0,23.6c0,0.2,0,0.5,0,0.7c0.1,1.2,0.7,1.8,2,1.9c1.1,0.1,2.1,0,3.2,0c1,0,1.5-0.6,1.7-1.5
		c0.1-0.3,0.1-0.7,0.1-1C182,114.3,182,110.4,182,106.5z"/>
	<path d="M60.6,125.4c-1.7,0-3.4,0-5,0c0-12.6,0-25.3,0-37.9c0.2,0,0.3,0,0.5,0c3.1,0,6.1,0,9.2,0c0.6,0,1.2,0,1.8,0.2
		c2.1,0.4,3.3,1.6,3.9,3.6c0.2,0.7,0.3,1.5,0.3,2.3c0,3.3,0,6.7,0,10c0,0.8-0.1,1.5-0.2,2.3c-0.3,1.7-1.1,3-2.8,3.8
		c1.2,5.2,2.4,10.5,3.6,15.8c-1.6,0-3.1,0-4.8,0c-0.4-1.7-0.8-3.4-1.1-5.1c-0.4-1.7-0.8-3.4-1.1-5.1c-0.4-1.7-0.8-3.4-1.1-5.1
		c-1,0-2,0-3,0c0,1.7,0,3.4,0,5c0,1.7,0,3.4,0,5.1C60.6,121.9,60.6,123.6,60.6,125.4z M60.6,105.7c1.3,0,2.5,0,3.8,0
		c0.8,0,1.4-0.5,1.6-1.3c0.1-0.5,0.2-1,0.2-1.6c0-2.6,0-5.2,0-7.8c0-0.4,0-0.8-0.1-1.2c-0.2-1-0.8-1.6-1.7-1.7c-0.2,0-0.5,0-0.7,0
		c-0.9,0-1.8,0-2.6,0c-0.1,0-0.3,0-0.4,0C60.6,96.6,60.6,101.1,60.6,105.7z"/>
	<path d="M149.2,87.4c1.7,0,3.3,0,5,0c0,5.4,0,10.8,0,16.1c0.4,0.1,5.2,0.2,6.2,0.1c0-0.2,0-0.4,0-0.7c0-4.9,0-9.8,0-14.7
		c0-0.2,0-0.4,0-0.6c0.4-0.1,4.5-0.2,5.1,0c0,12.6,0,25.2,0,37.8c-0.4,0.1-4.2,0.2-5.1,0c0-1.4,0-2.8,0-4.3c0-1.4,0-2.8,0-4.2
		c0-1.4,0-2.9,0-4.3c0-1.4,0-2.8,0-4.2c-0.4-0.1-5.3-0.1-6.2,0c0,0.2,0,0.4,0,0.6c0,5.3,0,10.6,0,15.8c0,0.2,0,0.4,0,0.7
		c-1.7,0-3.4,0-5,0C149.2,112.7,149.2,100.1,149.2,87.4z"/>
	<path d="M144.8,97.6c-1.6,0-3.3,0-5,0c0-0.2,0-0.3,0-0.5c0-0.8,0-1.7,0-2.5c0-0.3,0-0.6,0-0.8c-0.1-1-0.7-1.7-1.8-1.8
		c-0.5,0-1,0-1.5,0c-1,0.1-1.6,0.7-1.8,1.7c-0.1,0.3-0.1,0.6-0.1,0.9c0,1.9,0,3.9,0,5.8c0,0.1,0,0.2,0,0.3c0,0.7,0.3,1.3,0.9,1.7
		c0.4,0.3,0.9,0.6,1.3,0.8c1.9,1,3.7,2,5.6,3c0.4,0.2,0.8,0.5,1.1,0.8c0.9,0.6,1.2,1.5,1.3,2.5c0,0.2,0,0.4,0,0.6c0,3.2,0,6.4,0,9.5
		c0,0.7-0.1,1.4-0.3,2c-0.5,2-1.9,3.1-3.9,3.6c-0.5,0.1-1.1,0.2-1.6,0.2c-1.5,0-2.9,0-4.4-0.1c-2.4-0.2-4.1-1.6-4.7-3.9
		c-0.2-0.7-0.3-1.5-0.3-2.3c-0.1-0.8,0-1.7,0-2.6c1.7,0,3.3,0,4.9,0c0,0.1,0,0.3,0,0.4c0,0.5,0,1,0,1.4c0,0.3,0,0.6,0.1,0.9
		c0.1,0.8,0.6,1.2,1.4,1.4c0.7,0.2,1.5,0.2,2.2,0.1c0.9-0.1,1.4-0.7,1.5-1.6c0-0.3,0-0.6,0-0.9c0-1.9,0-3.8,0-5.7
		c0-1.5,0.1-1.6-1.5-2.6c-1.2-0.7-2.4-1.4-3.6-2c-0.8-0.4-1.6-0.8-2.3-1.3c-0.4-0.3-0.9-0.5-1.3-0.8c-0.8-0.5-1.2-1.3-1.4-2.2
		c-0.1-0.4-0.1-0.9-0.1-1.3c0-2.9,0-5.9,0-8.8c0-0.7,0.1-1.4,0.3-2.1c0.6-2.2,2.1-3.6,4.4-3.8c1.9-0.2,3.8-0.2,5.7,0
		c2,0.2,3.5,1.1,4.3,3.1c0.3,0.7,0.4,1.4,0.5,2.1c0.1,1.6,0.1,3.2,0.1,4.7C144.9,97.4,144.8,97.5,144.8,97.6z"/>
	<path d="M113.8,125.4c-1.7,0-3.3,0-5,0c0-5.6,0-11.1,0-16.7c0-5.5,0-11.1,0-16.7c-1.6,0-3.2,0-4.8,0c-0.1-0.5-0.1-4,0-4.6
		c4.9,0,9.8,0,14.6,0c0.1,0.4,0.1,3.6,0,4.5c-0.5,0.1-1,0-1.6,0c-0.5,0-1,0-1.5,0c-0.5,0-1.1,0-1.6,0c-0.1,0.1-0.1,0.1-0.1,0.1
		c0,0,0,0,0,0c0,0,0,0.1,0,0.1c0,0,0,0,0,0.1c0,0,0,0,0,0.1c0,0.1,0,0.1,0,0.2c0,10.9,0,21.7,0,32.6c0,0,0,0,0,0.1c0,0,0,0,0,0.1
		c0,0,0,0,0,0.1C113.8,125.3,113.8,125.3,113.8,125.4z"/>
	<path d="M75.5,125.3c0-12.6,0-25.2,0-37.9c1.7,0,3.3,0,5,0c0.1,0.4,0.2,36.8,0.1,37.9C80.1,125.4,76.2,125.4,75.5,125.3z"/>
</g>
</svg>
