<?xml version="1.0" encoding="utf-8"?>
<!-- Generator: Adobe Illustrator 28.1.0, SVG Export Plug-In . SVG Version: 6.00 Build 0)  -->
<svg version="1.1" id="Layer_1" xmlns="http://www.w3.org/2000/svg" xmlns:xlink="http://www.w3.org/1999/xlink" x="0px" y="0px"
	 viewBox="0 0 216 216" style="enable-background:new 0 0 216 216;" xml:space="preserve">
<style type="text/css">
	.st0{fill:#3A8DDE;}
</style>
<path class="st0" d="M50.6,111.5c0.8-0.2,1.4-1,1.4-1.8c0-0.8-0.5-1.5-1.2-1.8c-9.5-4-72.9-32.1-42.6-64.2c0,0,0.1-0.1,0.1-0.1
	C9.4,42,41.4,0.8,63.8,0.8c19.6,0,36.2,45.2,40.1,58.1c0.6,1.8,2.2,3,4.1,3c1.9,0,3.5-1.2,4.1-3c4-12.9,20.5-58.1,40.1-58.1
	c22.8,0,55.6,42.8,55.6,42.8c30.4,32.1-33.1,60.3-42.6,64.2c-0.7,0.3-1.2,1-1.2,1.8c0,0.8,0.6,1.6,1.4,1.8
	c10.1,3,71.8,23.3,36.9,65.2c-40.1,48.3-54.7,37.4-54.7,37.4s-14,0.8-35.2-49.4c-0.7-1.8-2.5-2.9-4.4-2.9c-1.9,0-3.7,1.2-4.4,2.9
	c-21.2,50.2-35.2,49.4-35.2,49.4s-14.6,10.9-54.7-37.4C-21.2,134.8,40.5,114.5,50.6,111.5"/>
</svg>
