<?xml version="1.0" encoding="utf-8"?>
<!-- Generator: Adobe Illustrator 28.1.0, SVG Export Plug-In . SVG Version: 6.00 Build 0)  -->
<svg version="1.1" id="Layer_1" xmlns="http://www.w3.org/2000/svg" xmlns:xlink="http://www.w3.org/1999/xlink" x="0px" y="0px"
	 viewBox="0 0 1728 500" style="enable-background:new 0 0 1728 500;" xml:space="preserve">
<style type="text/css">
	.st0{fill:#73B8FF;}
	.st1{fill:#004380;}
</style>
<rect class="st0" width="1728" height="500"/>
<g>
	<polygon class="st1" points="865.5,154.2 865.5,102.4 701.1,102.4 701.1,102.4 672.4,101.9 672.4,397.6 734.4,397.6 734.4,397.6 
		865.5,397.6 865.5,343.3 734.4,343.3 734.4,292.5 865.5,292.5 865.5,238.2 734.4,238.2 734.4,154.2 	"/>
	<path class="st1" d="M573.5,240.3c7.2-13.3,10.8-28.2,10.8-44.1c0-14.9-3.6-29.2-9.7-41.5c-13.8-27.7-40.5-48.2-72.2-52.3H372.6
		l0,0h-15.9v295.6h60.5V293h36.9l56.4,104.5h68.1l-56.4-105l-3.6-6.1C542.7,278.7,562.2,261.8,573.5,240.3z M483.8,240.3H471h-53.8
		v-85.6h52.3h16.9c21,3.6,36.9,21.5,36.9,42.5C522.8,219.3,505.8,237.2,483.8,240.3z"/>
	<polygon class="st1" points="971.6,397.6 1033.1,397.6 1033.1,102.4 971.6,101.9 	"/>
	<path class="st1" d="M1268.8,127l-9.2-24.6h-22h-22l-9.2,24.1l-102.5,271h59.9c4.1-7.7,9.2-14.9,15.9-20.5
		c8.2-7.7,17.9-13.8,28.7-17.4c9.2-3.1,19-5.1,29.2-5.1c12.3,0,23.6,2.6,33.8,6.7c9.2,3.6,16.9,9.2,24.1,15.4
		c6.7,6.1,11.8,12.8,15.9,20.5h59.9L1268.8,127z M1256.5,307.4c-6.1-0.5-12.3-1-19-1l0,0c-5.1,0-10.2,0-15.4,0.5
		c-11.3,1-22,3.6-30.7,6.7l38.9-102l0,0l7.7-19.5l0,0l0,0l0,0l8.7,22.5l37.4,98.9C1275.4,310.5,1266.2,308.4,1256.5,307.4z"/>
</g>
</svg>
