<?xml version="1.0" encoding="utf-8"?>
<!-- Generator: Adobe Illustrator 28.1.0, SVG Export Plug-In . SVG Version: 6.00 Build 0)  -->
<svg version="1.1" id="Layer_1" xmlns="http://www.w3.org/2000/svg" xmlns:xlink="http://www.w3.org/1999/xlink" x="0px" y="0px"
	 viewBox="0 0 216 216" style="enable-background:new 0 0 216 216;" xml:space="preserve">
<style type="text/css">
	.st0{fill:#73B8FF;}
	.st1{fill:#004380;}
</style>
<rect class="st0" width="216" height="216"/>
<g>
	<polygon class="st1" points="108.2,93.8 108.2,86.1 83.8,86.1 83.8,86.1 79.5,86 79.5,129.9 88.7,129.9 88.7,129.9 108.2,129.9 
		108.2,121.9 88.7,121.9 88.7,114.3 108.2,114.3 108.2,106.2 88.7,106.2 88.7,93.8 	"/>
	<path class="st1" d="M64.8,106.6c1.1-2,1.6-4.2,1.6-6.5c0-2.2-0.5-4.3-1.4-6.2c-2.1-4.1-6-7.2-10.7-7.8H35l0,0h-2.4V130h9v-15.6
		h5.5l8.4,15.5h10.1l-8.4-15.6l-0.5-0.9C60.3,112.3,63.2,109.8,64.8,106.6z M51.5,106.6h-1.9h-8V93.8h7.8h2.5
		c3.1,0.5,5.5,3.2,5.5,6.3C57.3,103.4,54.8,106.1,51.5,106.6z"/>
	<polygon class="st1" points="124,129.9 133.1,129.9 133.1,86.1 124,86 	"/>
	<path class="st1" d="M168.1,89.7l-1.4-3.7h-3.3h-3.3l-1.4,3.6l-15.2,40.3h8.9c0.6-1.1,1.4-2.2,2.4-3c1.2-1.1,2.7-2.1,4.3-2.6
		c1.4-0.5,2.8-0.8,4.3-0.8c1.8,0,3.5,0.4,5,1c1.4,0.5,2.5,1.4,3.6,2.3c1,0.9,1.8,1.9,2.4,3h8.9L168.1,89.7z M166.3,116.5
		c-0.9-0.1-1.8-0.2-2.8-0.2l0,0c-0.8,0-1.5,0-2.3,0.1c-1.7,0.2-3.3,0.5-4.6,1l5.8-15.1l0,0l1.1-2.9l0,0l0,0l0,0l1.3,3.3l5.6,14.7
		C169.1,117,167.8,116.7,166.3,116.5z"/>
</g>
</svg>
