<?xml version="1.0" encoding="utf-8"?>
<!-- Generator: Adobe Illustrator 28.1.0, SVG Export Plug-In . SVG Version: 6.00 Build 0)  -->
<svg version="1.1" id="Layer_1" xmlns="http://www.w3.org/2000/svg" xmlns:xlink="http://www.w3.org/1999/xlink" x="0px" y="0px"
	 viewBox="0 0 216 216" style="enable-background:new 0 0 216 216;" xml:space="preserve">
<style type="text/css">
	.st0{fill:#00FFFF; filter: drop-shadow(0px 0px 2px #00FFFF);}
	.st1{fill:none;}
</style>
<g>
	<path class="st0" d="M78.1,94.8c3.3-7.5,13.9-20.1,22.9-18.7c-2.5,0.7-4.4,2.1-6.4,3.6C89,84.3,83.7,90.2,78.1,94.8L78.1,94.8z"/>
	<path class="st0" d="M80.2,74c7.5,3.3,20.1,13.9,18.7,22.9c-1.5-4.8-5.2-8.2-8.4-11.9C87.4,81.8,83,77.5,80.2,74L80.2,74z"/>
	<path class="st0" d="M117.9,95c3.3-7.5,13.9-20.1,22.9-18.7c-2.5,0.7-4.4,2.1-6.4,3.6C128.8,84.4,123.5,90.4,117.9,95L117.9,95z"/>
	<path class="st0" d="M120,74.2c7.5,3.3,20.1,13.9,18.7,22.9c-1.5-4.8-5.2-8.2-8.4-11.9C127.2,82,122.8,77.7,120,74.2L120,74.2z"/>
	<g>
		<image style="overflow:visible;" width="154" height="163" xlink:href="E1FADDF19E8C713A.png"  transform="matrix(1 0 0 1 30 6)">
		</image>
		<g>
			<g>
				<path class="st0" d="M155,94.6c-1.7-1.9-2-4.4-1.3-6.9c0.7-2.6,0.8-5.3-0.4-7.8c-0.7-1.3-1.6-2.6-2.3-3.9
					c-0.3-0.5-0.4-1.1-0.3-1.6c0.2-2.5,0.6-4.9,0.9-7.4c0.8-7.9-1.4-14.7-8.6-19.9c-3.7-2.7-7.6-5.1-11.9-7
					c-6.5-2.8-13.2-5-20.4-5.7c-1.5-0.1-3-0.4-4.4-0.5c-2.1,0-4.2,0-6.3,0c-2.3,0.3-4.8,0.5-7,1.1c-3.6,0.9-7.1,2.1-10.6,3.2
					c-3.5,1.1-6.5,2.8-9.2,5.1c-0.4,0.4-1,0.6-1.5,0.9c-4.4,2-7,5.3-8.2,9.5C62,59.2,61,64.8,60.9,70.6c0,1.4,0.5,2.9,1.1,4.2
					c0.8,1.7,1,3.3,0.4,4.9c-0.8,2.1-0.8,4.1-0.5,6.3c0.1,1-0.1,2-0.2,3.1c-0.1,0.8-0.3,1.7-0.3,2.5c0,0.9-0.4,1.4-1.4,1.3
					c-1.4-0.1-2.3,0.5-2.8,1.6c0,0.9,0,1.9,0,2.8c0.1,0.3,0.2,0.7,0.3,1c0.4,1.5,0.4,3,1.6,4.2c1.8,1.8,3.5,3.6,5.2,5.5
					c0.7,0.8,1.5,1.5,2.7,1.4c2.9-0.2,5.5,0.7,8.1,1.6c2.7,1,4.2,3.1,5.8,5.1c1.8,2.3,0.6,4.8,0.6,7.3c0,1.5-0.7,3,0.9,4.3
					c1,0.8,1.8,1.9,1.7,3.3c0,0.8,0.3,1.7,1.6,1.9c0.2,0,0.4,0.3,0.5,0.5c0.3,0.8,0.8,1.1,1.5,0.8c0.3,0.6,0.5,1.4,1,1.6
					c0.6,0.2,1.4-0.2,2.3-0.4c-0.3,0.7-0.6,1.2-0.7,1.7c-0.2,1.1,0.7,1.4,2.2,0.7c0.3,0.8,0.4,1.6,0.8,2.3c0.7,1.5,2.1,1.6,3.4,0.5
					c0.6-0.5,1.2-1,1.6-1.3c1.1,0.5,2,1.2,2.8,1.1c0.9-0.1,1.7-1,2.6-1.6c0.3,1.1,1.3,1.9,2.4,1.7c0.8-0.1,1.4-1.1,2.3-1.8
					c0.2,0.2,0.7,0.7,1.1,1.2c0.6,0.8,1.8,1,2.7,0.4c0.4-0.3,0.6-0.6,1-1.1c0.3,0.3,0.6,0.6,1,0.7c0.7,0.2,1.5,0.5,2.2,0.3
					c0.8-0.2,1.5-0.8,2.1-1.1c0.6,0.5,1.1,1,1.7,1.3c1.3,0.7,2.1,0.4,2.3-0.9c0.1-0.8,0-1.6,0-2.5c3,1.3,3,1.3,3.4-1.1
					c1.9,0.4,1.5-1,1.7-1.5c0.9-0.1,1.9,0,2.1-0.3c0.6-1.1,1.3-2.2,1.3-3.4c0.1-1.6,1.4-2.7,1.9-4.1c0-0.1,0.2-0.1,0.4-0.1
					c0,0.3-0.1,0.6-0.1,1c1.4-2.5,1.4-3.6-0.2-4.1c0.1-1.1,0.2-2.1,0.3-3.2c0-0.1,0-0.3,0.1-0.4c1.6-2.3,3.1-4.6,4.8-6.9
					c0.8-1.2,2.1-1.9,3.6-2.4c2.7-0.9,5.3-1.9,8-2.8c0.4-0.1,0.8-0.1,1.2-0.1c1.3-0.1,2.7-0.2,3.3-1.3c1-2.2,2.1-4.4,2.6-6.8
					C157.2,97.8,156.4,96.2,155,94.6z M62.4,103.9c1.5,0.1,1.7,1.2,2.2,2.1C63.8,105.3,63.1,104.6,62.4,103.9z M68.7,105.6
					c0.8-0.7,1.6-1.3,2.5-2C71.3,104.5,69.9,105.6,68.7,105.6z M74.8,103c-1.2,0.8-1.9,2.1-3.6,2.3C71.8,103.8,73.2,103.3,74.8,103z
					 M73.6,105.3c0-0.3,0-0.6,0.1-0.7c1.4-1.1,2.8-2.1,4.4-3c-1.3,1.4-2.6,2.7-3.9,4.1C74,105.5,73.8,105.4,73.6,105.3z M82.6,125.7
					c-0.1,0-0.3,0-0.4,0c-0.1-0.7-0.2-1.3-0.2-2c0-0.2,0.4-0.3,0.6-0.5c0.1,0.2,0.3,0.4,0.3,0.6C83,124.5,82.8,125.1,82.6,125.7z
					 M83.1,126.9c0.1-0.9,0.2-1.8,0.4-2.8c1.8,1.3,1.7,3,2,4.7C83.5,128.8,83,128.3,83.1,126.9z M85.6,131.9c-0.1,0-0.2,0.1-0.3,0.1
					c-0.2-0.9-0.3-1.7-0.5-2.6c0.7-0.1,0.9,0.1,0.8,0.8C85.6,130.8,85.6,131.4,85.6,131.9z M86.2,125.6c1.3,1.2,0.2,2.7,1,4.1
					C85.6,128.9,85.3,127.2,86.2,125.6z M88.2,131c-0.6-1.5-1.2-3-0.2-4.5c0.4-0.7,0.9-0.7,1.3,0c0.3,0.6,0.4,1.3,0.6,1.9
					c-0.1,0-0.2,0-0.2,0.1c0.2,0.6,0.4,1.3,0.5,1.9c0,0.3-0.1,0.9-0.2,0.9C89.2,131.2,88.3,131.2,88.2,131z M90.4,134.8
					c-0.1,0-0.2,0-0.3,0c-0.1-0.1-0.3-0.3-0.5-0.4c-0.2,0.4-0.3,0.8-0.5,1.1c-0.1,0-0.3,0-0.4,0c-0.1-0.9-0.2-1.9-0.4-3.1
					c1.2,0.4,1.7,0.1,1.7-0.8c0.1,0,0.2,0.1,0.3,0.1C90.4,132.8,90.4,133.8,90.4,134.8z M92.3,132c-0.2,0.3-0.6,0.5-1.2,0.9
					c-0.5-2.7-0.9-5-1.3-7.4c1.4-0.4,2.5-0.1,3.1,0.7c0.2,0.3,0.6,0.5,1,0.7c-0.5,0.6-0.6,0.6-2-0.4c-0.4,0.2-0.8,0.4-1.5,0.7
					c0.5,0.1,0.8,0.2,1,0.1c1.3-0.5,1.3,0.2,1.4,1c0,0.5,0.2,0.9,0.4,1.4c0.1,0,0.3,0,0.4-0.1c0-0.5-0.1-1,0-1.4
					c0.1-0.4,0.5-0.8,0.8-1.3c0.9,0.8,1.3,1.4,0.9,2.3c-0.1,0.2-0.2,0.5-0.2,0.7c0.1,0.9-0.5,1.2-1.4,1.2
					C93,131.5,92.6,131.6,92.3,132z M100.8,132.3c-0.5,0.5-1.3,0.8-2,1.3c-0.5-0.6-0.9-1.1-1.9-0.9c-0.3,0.1-1.1-0.4-1.2-0.7
					c-0.2-0.7-0.4-1.5-0.3-2.3c0.1-1,0.4-2,0.6-3.1c0.1-0.8,0.7-1.1,1.5-0.8c1.2,0.4,2.1,1.2,2.4,2.4c0.1,0.3-0.2,0.7-0.3,1.2
					C100.3,129.6,101.3,131.8,100.8,132.3z M93.7,125.4c-0.6-0.4-1.3-0.7-1.9-1c0,0,0-0.1,0-0.1c1.4,0.4,2.7,0.7,4,1
					C95.1,126.2,94.7,126.2,93.7,125.4z M96.7,139.8c-0.2,0.7-0.9,1.3-1.9,1.2c-0.5-0.7-1.2-1.3-1.4-2c-0.3-1.5-0.4-3-0.6-4.6
					c-0.1-0.9,0.4-1.4,1.3-1.5c1.1-0.2,2.5,0.3,2.7,1c0.2,0.8,0.6,1.6,0.5,2.4C97.3,137.5,97.1,138.7,96.7,139.8z M102.8,138.8
					c-0.3,0.5-0.9,1-1.5,1.2c-0.3,0.1-1.1-0.4-1.4-0.8c-0.6-0.8-1.1-1.8-1.6-2.7c-0.1-0.2,0-0.4,0.1-0.6c0.1-0.6,0.2-1.1,0.4-1.8
					c2.1-1.3,3.3,0,4.1,1.6c0,0.5,0,1,0,1.5C102.9,137.7,103,138.4,102.8,138.8z M102.4,133.9c-0.9-0.1-1.1-0.9-0.9-1.7
					c0.1,0.1,0.2,0.2,0.4,0.5c0-0.6-0.1-1.1-0.1-1.5c0-0.7,0-1.3,0-2c0-0.5,0.3-0.8,0.1-1.4c-0.3-1.1,1.2-1.3,2.1-1.5
					c0.7-0.2,1.8-0.6,2,0.4c0.3,1.1,0.1,2.4,0.5,3.5c0.4,1.1-0.2,2-0.5,3c-0.1,0.3-0.4,0.7-0.7,0.7
					C104.5,133.9,103.4,134,102.4,133.9z M108.2,136.7c-0.2,0.9-0.6,1.7-1,2.5c-0.2,0.4-0.6,0.6-0.9,0.9c-0.4-0.4-1.1-0.7-1.3-1.2
					c-0.3-1.4-0.5-2.9-0.7-4.4c1,0,2.1-0.2,3.1,0.1C108.6,134.9,108.4,135.9,108.2,136.7z M113.2,137.7c-0.2,0.6-0.5,1.1-0.9,1.6
					c-0.3,0.4-0.8,0.9-1.1,0.9c-0.5-0.1-1-0.5-1.5-0.8c-0.1-0.1-0.1-0.3-0.2-0.4c-0.2-1.2-0.5-2.3-0.7-3.7c0-0.8,0.4-1.1,1.6-1.1
					c0.8,0,1.6,0.1,2.4,0.1c0.9,0,1.3,0.4,1.2,1.1C113.7,136.2,113.5,136.9,113.2,137.7z M112.8,132.9c-0.4-0.1-0.7-0.4-1-0.7
					c-0.3,0.9-1.3,0.6-2.1,0.5c-0.3,0-0.6-0.8-0.7-1.3c-0.3-1.5,0.3-3,0.9-4.4c0.5-1,1.5-1.2,2.6-1.1c1.1,0.1,2.1,0.3,2.3,1.5
					c0.3,1.1,0.8,2.1,0.9,3.2C116.1,132.9,115.3,133.5,112.8,132.9z M116.4,139.3c-0.4,0.3-0.7,0.5-1.1,0.7c-1.1-0.7-1.4-3.4-0.6-5
					c0.5,0.8,1,1.2,1.5,0c0.1,0.3,0.3,0.5,0.2,0.4c0.6-0.1,1-0.4,1.3-0.2c0.3,0.2,0.7,0.6,0.7,0.9
					C118.3,137.4,117.6,138.4,116.4,139.3z M121.3,140.4c-0.8-0.3-1.8-0.6-2.1-1.1c-0.3-0.5-0.9-1.5,0.2-2.2
					c0.2,0.2,0.5,0.5,0.9,0.9c-0.1-0.9-0.3-1.5-0.4-2.1c0.8-0.1,1.4,0.3,1.6,0.9c0.3,1,0.3,2,0.3,3C122,140,121.4,140.4,121.3,140.4
					z M120.2,134.2c-0.8,0-1.7,0-2.5,0c-0.2,0-0.4-0.1-0.5-0.2c-0.5-0.4-0.6-2.6-0.3-3.2c0.3-0.5,0.2-1.2,0.3-1.8
					c0.1-0.7,0-1.4,0.2-2c0.1-0.4,0.7-0.6,1.2-0.8c1.2-0.4,2.2,0,2.6,1.1c0.5,1.5,1,3,1.5,4.5C123.1,133.4,122.2,134.3,120.2,134.2z
					 M125.2,137.8c-0.6-0.2-1-0.3-1.4-0.5c0.4-1.1,0.5-2-0.7-2.6c-0.1-0.1-0.3-0.3-0.2-0.4c0.3-0.6,0.5-1.3,1-1.7
					c0.9-0.7,1.7-0.4,1.7,0.8C125.5,134.8,125.3,136.2,125.2,137.8z M123.9,130.9c-0.9-0.8-1.9-1.6-1.6-2.8c0.3-1.2,1-2.2,2.4-2.6
					c0.8-0.2,1.2,0,1.2,0.7c0.1,0.9,0.2,1.8,0.2,2.7c0,0.2-0.1,0.5-0.3,0.7C125.3,130,124.6,130.4,123.9,130.9z M125.9,135.5
					c0-1,0-1.9,0-2.9c0.7-0.2,0.9,0.1,1,0.7C127.2,134.7,127,135.3,125.9,135.5z M126.7,131.2c0.8-1.8-0.8-4,1.1-5.8
					c0.8,1.9,1,3.5,0.6,5.3C128.3,131.6,127.7,131.8,126.7,131.2z M130.3,132c-0.2,0.5-0.4,1-0.7,1.4c-0.2,0.3-0.5,0.5-0.7,0.7
					c-0.2-0.3-0.6-0.5-0.7-0.8c-0.2-1.3,0.2-2,1.5-2.6c0.3-0.2,0.6-0.5,0.9-0.7c0.1,0,0.2,0,0.3,0.1
					C130.7,130.7,130.5,131.4,130.3,132z M128.8,126.9c0-0.2,0.1-0.5,0.2-0.7c0.3,0.1,0.7,0.2,0.8,0.4c0.6,1.2,0.2,2.4-0.5,3.7
					C129.1,129,128.9,127.9,128.8,126.9z M131.5,128.5c-0.1,0-0.2,0-0.4,0.1c-0.3-1-0.7-1.9-0.9-2.9c-0.1-0.9,0.6-1.1,1.3-0.8
					c0-0.5,0.1-1,0.1-1.4c0.1,0,0.3,0,0.4,0C132.8,125.2,132.2,126.9,131.5,128.5z M136.1,114.5c-0.3-1,0.6-2,2-2.6
					C137.4,112.8,136.8,113.6,136.1,114.5z M155.1,99.2c-0.4,1.6-0.8,3.2-1.4,4.7c-0.8,1.9-1.9,2.5-4.2,2.3
					c-1.7-0.1-3.4-0.5-5.1-0.8c-1.6-0.3-3.1-0.6-4.7-0.9c1-1,2.4-1.6,4.2-1.7c-1.1-0.3-2.3-0.2-3.4,0.7c-1.4,1-2.9,1.8-4.7,2.1
					c-0.5,0.1-1,0.5-1.4,0.9c-0.7,0.7-1.4,1.1-2.4,0.3c-0.3,0.3-0.6,0.5-0.8,0.7c0.5,0,1,0.1,1.5,0c0.6-0.1,1.3-0.2,1.7-0.5
					c1.9-1.6,4.2-1.8,6.5-1.4c0.7,0.1,1.2,0.7,1.9,1.1c-0.5,0.4-1.2,0.8-1.9,1.3c-1.1,0.5-2.1,0.9-3.2,1.4c-0.2,0.2-0.4,0.5-0.7,0.8
					c1.2-0.6,2.3-1.1,3.4-1.7c-1.2,0.8-2.3,1.6-3.5,2.5c-0.4,0.3-0.7,0.7-0.8,1.1c0.8-0.6,1.6-1.2,2.4-1.7c0.1,0.1,0.1,0.1,0.2,0.2
					c-0.9,0.9-1.8,1.9-2.7,2.8c-0.2,0.2-0.2,0.6-0.3,1c-0.2,0.6-0.4,1.1-0.8,1.7c-0.1-0.4-0.2-0.7-0.4-1.3c-0.1,0.5-0.1,0.8-0.2,1.3
					c-0.1-0.4-0.1-0.7-0.2-1.2c-0.4,1.5-0.7,2.9-1,4.5c-0.3-0.7-0.5-1.1-0.7-1.6c0,0-0.1,0-0.1,0c0.1,1.5,0.3,3.1,0.4,4.6
					c-0.7,0.2-1.1,0.3-1.6,0.4c0,0.1,0,0.1,0,0.2c0.3,0,0.7-0.1,0.9-0.1c-0.8,0.8-1.6,1.7-2.5,2.4c-0.2,0.2-0.8,0.1-1.2,0.2
					c-0.3,0-0.5,0-0.8-0.1c-0.9-0.1-1.9-0.2-2.8-0.3c0-0.1,0-0.3,0.1-0.4c0.5,0,1,0,1.6,0.1c0-0.1,0-0.2,0-0.3c-0.7,0-1.5-0.2-2.1,0
					c-1.7,0.8-3.3,0.9-5.1,0.2c-0.4-0.2-1,0-1.5,0c0,0.1,0,0.2,0,0.3c0.6,0,1.1,0.1,1.7,0.1c0,0.1,0,0.1,0,0.2
					c-1.2,0.2-2.3,0.5-3.5,0.7c-0.4,0.1-0.8-0.2-1.2-0.4c-1.7-0.8-3.4-1.1-5.2,0c0.2,0.1,0.3,0.2,0.4,0.2c-0.4,0.5-0.9,1.1-1.4,1.6
					c-0.8-0.8-1.4-1.5-1.9-2.1c-0.8-1-1.8-0.8-2.9-0.4c-1.2,0.5-2.2,1.5-3.6,1.2c-1.1-0.2-2.1-0.7-3-1.3c0.7,0.2,1.4,0.4,2.3,0.6
					c-0.8-0.9-1.8-1.2-2.7-0.8c-1.5,0.6-2.4-0.2-3.5-0.8c-0.3-0.2-0.6-0.4-0.9-0.8c-0.3-0.1-0.9-0.1-1.4-0.2
					c-0.2,0.4-0.4,0.8-0.7,1.3c-0.4-0.2-0.6-0.3-0.8-0.4c-0.5,0.2-0.9,0.5-1.5,0.8c0.9,0.1,1.8,0.2,2.8,0.3
					c-0.4,0.3-0.8,0.6-1.2,0.9c-0.5-0.8-1-1-2-0.5c-0.5,0.2-1.6,0.1-2.1-0.8c-0.4-0.7-0.7-1.5-2-1.4c-0.3,0-0.9-0.6-0.9-1
					c-0.1-0.9,0.1-1.8,0.1-2.7c0-0.4,0.1-0.7,0-1.1c-0.4-1.1,0.2-1.2,1.2-1.1c-0.3-0.9,0.6-2.3,1.7-2.7c-0.2,0.5-0.4,0.9-0.6,1.3
					c0.2-0.2,0.4-0.4,0.7-0.5c0,0,0.1,0.1,0.1,0.1c-0.5,0.9-1,1.7-1.5,2.6c0.4-0.2,0.9-0.8,1.2,0.2c0.3-0.4,0.5-0.8,0.7-1.1
					c0.1,0,0.2,0,0.3,0.1c-0.4,1.3-0.7,2.5-1.1,3.8c1.2-1.9,1.8-3.8,1.3-6c-0.2-0.7,0-1.7-1-2.2c-0.1-0.1,0.3-0.9,0.5-1.6
					c-0.5,0.5-0.9,0.9-1.3,1.2c-0.9-0.8-1.8-1.6-2.5-2.5c-0.5-0.6-1.2-0.8-2-1.1c-0.9-0.3-1.6-1-2.5-1.5c0.6-0.7,1.2-1.4,1.8-2.1
					c0,0-0.1-0.1-0.1-0.1c-0.6,0.5-1.2,0.9-1.8,1.4c-0.4,0.3-0.8,1-1.3,0.1c-0.1-0.1-0.5,0-1-0.2c1.2-0.9,2.3-1.9,3.5-2.8
					c-0.1-0.1-0.1-0.1-0.2-0.2c-1.3,1-2.7,2-4,3c-0.1-0.1-0.2-0.2-0.2-0.3c2-1.7,4.1-3.2,6.6-4.2c0.5,0.7,0.9,1.4,1.3,2.1
					c0.1,0,0.2-0.1,0.3-0.1c-0.4-0.8-1.8-1.6-0.4-2.8c0.2,1.6,0.2,1.6,3,1.9c-0.2,0.4-0.3,0.8-0.5,1.2c0.1,0,0.1,0.1,0.2,0.1
					c1.1-1.1,2.2-2.2,3.3-3.3c-1.3,0.9-2.3-0.2-3.3-0.4c0.1-0.3,0.2-0.6,0.2-1c-1.7,0.7-3.3,1.3-4.9,1.9c0-0.1-0.1-0.1-0.1-0.2
					c1.1-0.4,2.1-0.9,3.2-1.3c0-0.1,0-0.1-0.1-0.2c-0.8,0.2-1.6,0.3-2.5,0.5c0.2-0.4,0.4-0.7,0.7-1.1c-1.9,0.1-3.7,0.4-5.4,0.4
					c-1.3,0-2.9,0.1-3.7-1.2c-0.4,0.1-0.7,0.2-1,0.4c-0.2-0.3-0.4-0.6-0.5-0.8c-1.5,0.3-1.5,0.3-2.3-1.6c0.1,0.7,0.3,1.4,0.5,2.2
					c-1-0.1-2.1-0.8-3.5,0c1.5,0.1,3-0.1,3,1.5c-0.2,0.6-0.4,1.2-0.7,1.9c1.5-0.5,2.6-0.9,3.8-1.2c0.1,0.2,0.1,0.4,0.2,0.6
					c-0.4,0.1-0.8,0.2-1.4,0.4c0.7,0.3,1.1,0.5,1.5,0.7c0,0,0,0.1,0,0.1c-0.3,0-0.7-0.1-1.2-0.2c0.3,0.3,0.4,0.5,0.6,0.6
					c-1.7,1.9-3.5,3.2-4.6,3c1.2-0.9,2.3-1.6,3.4-2.4c-0.1-0.1-0.1-0.2-0.2-0.2c-1.3,0.9-2.5,1.7-3.6,2.5c-0.4-0.1-0.7-0.2-1.1-0.2
					c0,0.1,0,0.1-0.1,0.2c-0.6-0.6-1.1-1.1-1.7-1.7c-0.3-0.3-0.8-0.4-1,0.1c0,0,0,0,0,0c-0.3-0.4-0.6-1-1-1.3
					c-1.5-1.1-2.2-2.5-2.4-4.1c-0.2-1.3-0.2-2.5-0.1-3.8c0.1-0.7,0.7-1,1.6-0.8c-0.2,0.7-0.3,1.3-0.5,1.9c0.1,0,0.1,0,0.2,0.1
					c0.1-0.2,0.3-0.4,0.4-0.7c0.1-0.2,0.1-0.5,0.3-0.7c2-1.8,1.5-4.1,1.8-6.2c0.1-1-0.2-2.1,0.2-3c0.5-1.1,0.1-2.6,1.5-3.4
					c0.4-0.3,0.6-0.9,0.9-1.4c-0.1-0.1-0.2-0.1-0.3-0.2c-0.6,0.8-1.3,1.6-1.9,2.3c-0.1,0-0.2-0.1-0.3-0.1c0.7-1.5,1.5-3.1,2.2-4.6
					c0,0,0,0,0,0c0,0,0,0,0,0c0,0,0,0,0,0c0,0,0,0,0,0l0,0c0,0,0,0,0,0c0.5-1.5,1.1-2.9,1.5-4.4c0.4-1.5,1.2-2.7,2.2-3.8
					c1.6-2,1.9-4.4,2.1-6.8c0-1.1-0.8-2.2-1.3-3.3c-0.3-0.8-0.7-1.6-1.2-2.4c0.2,0.6,0.2,1.3,0.5,1.9c1.5,2.7,0.6,5.4,0.2,8.2
					c-0.2,1.1-1.1,1.7-2.6,1.8c0.6-1.1,1.2-2.1,1.8-3.2c-0.3,0.2-0.6,0.4-0.7,0.4c-0.7-0.3-1.2-0.5-2-0.8c0-0.4-0.1-1.1-0.2-1.8
					c0.1,1.1-0.8,2.3,0.3,3.4c-0.6,2,0.8,4-0.4,6c-0.7,1-1,2.2-1.7,3.5c-1.4-2.7-2.1-5.3-1.7-8.1c0.8-4.8,1.6-9.7,3.3-14.3
					c1.4-3.6,3.8-6.5,7.3-8.8c9.4-6.1,20-9.4,31.6-10.3c4.9-0.4,9.6,0.7,14.2,1.9c8,2.1,15.5,5.1,21.9,9.9c2.6,1.9,5,4.1,6.9,6.6
					c1.6,2.2,2.7,4.6,2.7,7.3c0,3.4,0,6.7,0,10.1c-0.1,0-0.2,0.1-0.3,0.1c-0.6-0.9-1.3-1.7-1.7-2.3c-0.6-2.3-1.2-4.2-1.5-6.2
					c-0.4-2.2-0.5-4.5-0.9-6.8c-0.1,0.2-0.2,0.3-0.2,0.5c0.1,2.5,0.4,5,0.3,7.5c0,3.1,0.4,6,2.4,8.6c0.4,0.5,0.4,1.2,0.6,1.7
					c0.4,0.9,0.5,2.1,1.3,2.7c1.7,1.5,1.8,3.4,2.4,5.2c0.8,2.2,0,4.3-0.3,6.4c-0.2,1.2-0.2,2.4,0,3.5c0.1,0.8,0.8,1.5,1.2,2.1
					c0.6,0.9,1.6,1.6,1.9,2.5C155.4,97.4,155.3,98.4,155.1,99.2z"/>
				<path class="st0" d="M95.7,106.6l1.8-3.1l-0.1,1.5c-0.1,0.7-0.1,1.3-0.1,2l0,0.1c0,0.5,0,1.1,0.2,1.7c0.7,1.7,2.1,2.9,4.3,3.8
					c1.8,0.7,3.4,0.6,4.8-0.4c0.1,0,0.1-0.1,0.2-0.1c0,0,0,0.1,0,0.1l0.4,0l0,0c-0.2,0-0.4,0-0.5,0.1c0.2,0.5,0.4,1,0.7,1.5
					c0.3,0.6,0.9,1.1,1,1.7c0.1,0.8-0.1,1.6-0.2,2.5c0.2,0.1,0.4,0.2,0.7,0.3c0.3-1.2,0.5-2.4,0.8-3.7c0,0-0.3-0.2-0.5-0.1
					c-1.2,0.6-1.3-0.4-1.5-1c-0.1-0.1-0.1-0.3-0.1-0.4l0.3,0.3l0-0.2l0.8,0.6l-1.3-5.3l0.9-0.2c0,0.1,0.1,0.2,0.1,0.3
					c0.2,0.3,0.2,0.7,0.3,1.2c0.1,0.9,0.3,2.1,1.9,2.6l0.3,0.1c0.5,0.1,1,0.3,1.5,0.3c0.4,0,0.7-0.2,1.1-0.3
					c0.3-0.1,0.6-0.2,0.8-0.2c2-0.1,3.3-1.1,4-3c0.1-0.4,0.3-0.7,0.6-1.1c0.3-0.5,0.6-1.1,0.8-1.7c0.2-0.8,0.2-1.7,0.2-2.5
					c0-0.3,0-0.5,0-0.8c0-0.8,0-1.6,0-2.5l0-2.5l-0.4,0.5c-0.5-1-1.1-2-1.6-3c0.4,1.1,0.1,2.5,1.6,3l-0.7,0.8l-3.3-9.8l-1,0.2l0,0
					c-0.2-0.4-0.4-0.7-0.8-1l0.1-0.1l-1.6-1.1l0.2,0.9l-0.9,0.6l-2.4-2.5v3.3c0,0-0.1-0.1-0.1-0.1c-0.4-0.3-0.8-0.6-1.1-0.9
					c-0.4-0.5-0.9-0.7-1.4-0.7c0,0,0,0,0,0c-0.3,0-0.7,0.1-1.1,0.5c-0.5,0.5-0.8,0.4-1.1,0.2l-0.5-0.3l-3.2,7l-0.4-0.3v-2.7
					l-0.5,2.3L99,94.8v1l-0.3,1.3c-0.2,1.1-0.7,2-1.3,3.1c-0.7,1.3-1.4,2.7-1.5,4.2L95.7,106.6z M113.9,90.2
					c0.2,0.3,0.4,0.6,0.5,0.9l0.3,0.9c-0.5-0.8-1-1.6-1.3-2.4C113.5,89.8,113.7,90,113.9,90.2z M109.7,89l0.2,0.3l-0.2,0.1V89z
					 M98.9,99.5l1.1,0v-2.8l0.6,0.4l3.3-7.1c0.6,0.2,1.3,0,1.9-0.6c0.2-0.2,0.3-0.2,0.4-0.2c0,0,0,0,0,0c0.2,0,0.4,0.1,0.6,0.4
					c0.4,0.4,0.8,0.7,1.3,1c0.2,0.1,0.4,0.3,0.5,0.4l0.3,0.2l0.7-0.5l0.2,0.3l2.5-1.5c0.5,1.7,1.5,3.1,2.5,4.3l0.2,0.3l0.7-0.2
					l2.5,7.6l0.6-0.7c0,0.8,0,1.5,0,2.2c0,0.3,0,0.6,0,0.8c0,0.8,0,1.6-0.2,2.3c-0.1,0.5-0.4,1-0.7,1.5c-0.2,0.4-0.5,0.8-0.6,1.2
					c-0.6,1.5-1.6,2.2-3.2,2.3c-0.4,0-0.8,0.2-1.1,0.3c-0.3,0.1-0.5,0.2-0.8,0.2c-0.3,0-0.7-0.1-1.1-0.2l-0.3-0.1
					c-1-0.3-1.1-0.9-1.2-1.8c-0.1-0.5-0.2-1-0.4-1.5c0-0.1-0.1-0.2-0.1-0.3c0-0.1,0-0.2-0.1-0.2l-0.1-0.5l-2.8,0.7l0.8,3.3
					c-0.2,0-0.5,0.1-0.9,0.3c-1.1,0.8-2.3,0.9-3.8,0.3c-2-0.8-3.2-1.8-3.8-3.2c-0.1-0.3-0.1-0.8-0.1-1.3l0-0.1
					c0-0.6,0.1-1.3,0.1-1.9l0,0l1.4,0.9l0.3-0.5c0.1-0.1,0.1-0.2,0.2-0.4c0.5-0.9,1.1-2,0.2-3.5l-0.3-0.5l0.1-0.2l-1.1-0.4l-0.2,0.4
					l-0.5-0.2C98.5,100.2,98.7,99.9,98.9,99.5z M99.2,104.4l0.7-1.2c0,0.5-0.2,0.9-0.5,1.3L99.2,104.4z M98,102.8l0.5,0.2l-0.2,0.7
					l-0.6-0.4L98,102.8z"/>
				<path class="st0" d="M133.1,104.6c0.7-0.5,1.5-1.1,2.2-1.6c-0.8,0.5-1.5,1-2.3,1.6C133.1,104.6,133.1,104.6,133.1,104.6z"/>
				<path class="st0" d="M136,102.6C135.9,102.6,135.9,102.6,136,102.6c-0.2,0.1-0.4,0.3-0.6,0.4C135.5,102.9,135.7,102.7,136,102.6
					z"/>
				<path class="st0" d="M147.4,99.9c-1.1-0.7-2.3,0.5-2.9-0.5c-0.5,0.1-1,0.4-1.6,0.4c-1.1,0-2.1-0.1-3.2-0.2c-0.2,0-0.6,0-0.7-0.1
					c-0.8-1.1-1.6-0.4-2-0.1c-0.6-0.4-1-0.7-1.4-1c-0.1,0.1-0.2,0.2-0.3,0.3c0.2,0.2,0.5,0.5,0.9,0.9c-0.6-0.1-1-0.2-1.4-0.2
					c-1.3-0.2-2.5-0.4-3.6,0.7c-1.4,1.5-1.5,2.4,0.1,3.6c0.4-0.3,0.8-0.7,1.2-1c0.1,0.1,0.1,0.1,0.2,0.2c-0.3,0.4-0.7,0.8-1,1.2
					c1.1-0.6,2.1-1.1,3.1-1.7c-0.1-0.2-0.3-0.5-0.2-0.5c1-0.8,2.1-1.6,3.3-2.2c-1,0.9-2,1.8-3,2.7c0.2-0.1,0.4-0.2,0.6-0.3
					c0.2,0.1,0.3,0.3,0.5,0.4c0.6-0.4,1.2-0.9,1.8-1.3c-0.5,0.6-1.1,1.2-1.6,1.8c0.1,0,0.1,0.1,0.2,0.1c1-0.8,2-1.6,2.9-2.4
					c-0.1,0-0.1-0.1-0.2-0.1c-0.2,0.1-0.4,0.2-0.6,0.2c0.4-0.2,0.9-0.4,1.3-0.4c2.4,0,4.7,0.2,7.1-0.3C147,100,147.2,100,147.4,99.9
					z"/>
				<path class="st0" d="M120.1,64.3c-0.1,0-0.1,0-0.2,0.1C120,64.3,120.1,64.3,120.1,64.3L120.1,64.3z"/>
				<path class="st0" d="M108.7,69.5c-0.6-0.7-1.2-1.2-1.7-1.9c-1.5-1.8-2.5-2.2-4.7-1.5c2.5-0.5,3.6,1.1,4.7,2.6
					c0.2,0.2,0.3,0.4,0.5,0.6c0.7,0.5,0.6,1,0,1.4c0.6,0.8,1.6,1.2,1.1,2.4c-0.3,0.8-0.2,1.7-0.3,2.7c-0.8-0.7-1.2-0.9-1.6,0
					c-0.2,0.4-0.8,0.6-1.2,0.9c-0.1-0.1-0.3-0.2-0.4-0.2c0.2-0.4,0.5-0.8,0.9-1.4c-0.6,0.1-1.2,0-1.4,0.2c-0.9,1.1,0.2,1.6,0.8,2.2
					c0.7-0.4,1.4-1.1,2.1-1.1c1.5,0.1,1.4-0.8,1.8-1.6c0.1-0.2,0.1-0.4,0.1-0.8c0.3,0.4,0.4,0.5,0.5,0.7c0,0,0,0,0,0
					c0-0.2,0.1-0.4,0.1-0.5c-0.1-1-0.2-2-0.3-3c-0.1-0.4-0.4-0.8-0.3-1.2c0.2-1.1,1.3-1.6,2.8-1.6c0.3,0,0.7-0.2,1-0.4
					c0.3-0.2,0.6-0.5,0.9-0.7c0.5-0.3,1-0.5,1.6-0.8c1-0.5,1.9-1.1,2.9-1.6c0.5-0.3,1-0.5,1.5-0.7c-1.1,0.3-2.3,0.4-3.4,0.9
					c-1.3,0.6-2.2,1.9-3.9,1.9c-0.1,0-0.2,0.3-0.3,0.4c-0.2,0.1-0.4,0.3-0.6,0.4C110.4,67.9,109.5,68.4,108.7,69.5z"/>
				<path class="st0" d="M104.2,114.8c-3.1,0.1-7.7-2.9-7.7-6.1c0-0.6-0.2-1.1-0.3-1.7c-0.2,1.9,0.2,3.8,1.3,5.4
					c0.9,1.3,2.1,2.3,3.9,2.5c2,0.2,4,0.5,6.1,0.8C106.7,114.8,106.5,114.7,104.2,114.8z"/>
				<path class="st0" d="M85.2,61.7c1.4,1.2,2.9,2.1,4.7,2.2c0,0.3-0.2,0.8-0.1,0.8c0.3,0.1,0.7,0.1,1.1,0.2
					c-0.1-0.4-0.2-0.6-0.3-0.9c1.7,0.4,3.2,0.7,4.7,1c-1.5-0.6-3.1-1.1-4.7-1.4c-2-0.3-3.6-1.1-5.1-2.2c-0.6-0.4-1.3-0.9-2-1
					c-2.6-0.4-5.1,0-7.4,1.2c1.1-0.3,2.1-0.6,3.2-0.7C81.3,60.7,83.4,60.3,85.2,61.7z"/>
				<path class="st0" d="M96.7,71.6c-0.4-1.4-2.5-2.7-4.4-2.8c-0.8-0.1-1.5-0.5-2.2-0.6c-1.3-0.2-2.2-0.7-2.9-1.7
					c-0.1-0.2-0.5-0.3-0.7-0.3c-1.2-0.3-2.5-0.6-3.7-0.9c0,0.1-0.1,0.2-0.1,0.3c0.5,0.2,1,0.4,1.5,0.5c1.3,0.1,2.3,0.6,3.2,1.4
					c0.3,0.3,0.6,0.6,0.9,0.7c1.3,0.5,2.7,1,4.1,1.2C94.1,69.7,95.7,70.2,96.7,71.6z"/>
				<path class="st0" d="M64.8,100.3c-0.1,0-0.2,0-0.3,0c-0.1,0.9-0.1,1.8-0.1,2.8c0,0.3,0.3,0.5,0.6,0.9c0-0.5,0-0.8,0.1-1.1
					c0.1,0.1,0.2,0.2,0.3,0.2c0.5-0.4,1.1-0.8,1.4-1.2c0.2-0.2,0-0.9-0.1-0.9c-1-0.2-1.3-1.2-2.4-1.5
					C64.4,99.8,64.6,100.1,64.8,100.3z"/>
				<path class="st0" d="M143.4,96.6c-0.1,0-0.1,0.1-0.2,0.1c4.8,0.5,6.5-1.8,6.9-6.8c-0.3,0.7-0.5,1.4-0.8,2.2
					C148.3,94.6,147,96.8,143.4,96.6z"/>
				<path class="st0" d="M126.9,97.1c-0.4-0.1-0.8-0.2-1.2-0.3c-2.8-0.6-5.2-1.6-6.5-4.2c-0.4-0.8-1.1-1.4-1.7-2
					c0.6,1.2,1.5,2.2,2.1,3.4c1.1,1.8,4.5,3.7,6.8,3.6c0.2,0,0.4-0.1,0.5-0.1C126.9,97.3,126.9,97.2,126.9,97.1z"/>
				<path class="st0" d="M98.6,70.5c0.1,1,1,0.9,1.6,1c1.4,0.2,2.9,0.4,3.8,1.5c0,0,0.1,0,0.4-0.1c-0.2-0.4-0.4-0.7-0.7-1.2
					c0.6,0.2,1,0.3,1.5,0.4C103.3,70.7,100.8,71.1,98.6,70.5z"/>
				<path class="st0" d="M70,55.4C70,55.4,70,55.3,70,55.4C70,55.3,70,55.3,70,55.4C70,55.3,69.9,55.3,70,55.4z"/>
				<path class="st0" d="M70.6,54.9c-0.1-0.2,0-0.4-0.1-0.5c-0.1-1.1-0.2-2.1-0.3-3.2c-0.1,0-0.1,0-0.2,0c0,1.3,0,2.7,0,4.1
					c0.1,0,0.3,0,0.5,0c-0.4,1.4-0.5,2.7,0.6,3.7c0.2-0.9,0.5-1.8,0.8-3c-0.4,0.6-0.6,1-0.7,1C71.1,56.4,70.9,55.7,70.6,54.9z"/>
				<path class="st0" d="M129.5,116.3c1.2-4,3.2-7,7.7-8.1C133,108.7,129.2,112.6,129.5,116.3z"/>
				<path class="st0" d="M109.1,118.3c-0.1,0-0.2-0.1-0.3-0.1c0,0,0,0,0,0C108.9,118.3,109,118.3,109.1,118.3z"/>
				<path class="st0" d="M103,78.2c-0.9,1-1.4,0.7-2-0.2c-0.1-0.1-0.3-0.2-0.4-0.3c1.2,1.1-0.1,2-0.3,3c0.3-0.3,0.7-0.6,1-1
					c0.4,0.5,0.9,1,1.3,1.5c0.1,0,0.1,0,0.2-0.1c-0.2-0.6-0.5-1.2-0.7-1.8c0.9-0.4,1.8-0.9,2.7-1.4C104.2,77.9,103.3,77.9,103,78.2z
					"/>
				<path class="st0" d="M115.4,120.7c-0.9-1.1-0.7-2,0.4-2.3c-0.4-0.1-1.1-0.1-1.1,0c-0.2,0.8-0.3,1.6-0.3,2.5c0,0.3,0.3,0.6,0.5,1
					c0.1-0.3,0.1-0.5,0.2-0.6c0,0,0,0,0.1,0c0.5,0.7,1,1.4,1.5,2.1c0.1-0.1,0.2-0.1,0.3-0.2c-0.3-0.6-0.7-1.3-1-1.9
					C115.8,121.1,115.6,120.9,115.4,120.7z"/>
				<path class="st0" d="M111.8,49.8c-4.9-1.8-9.3-1.5-13.7,0.4c2.2-0.4,4.4-1.2,6.6-1.2C107,48.8,109.2,49.4,111.8,49.8z"/>
				<path class="st0" d="M102.5,119.8c0-0.5-0.8-1.2-1.4-1.3c-0.4-0.1-1.1,0.5-1.6,0.8c0.2,0.2,0.3,0.3,0.5,0.5
					c0.1-0.2,0.1-0.4,0.2-0.5c0.9-0.8,1.3-0.7,1.7,0.3c0.1,0.3-0.1,0.8-0.1,1.2c0,0.9,0.1,1.9,0.2,2.8c0,0.2,0.2,0.4,0.3,0.6
					C102.4,122.7,102.6,121.3,102.5,119.8z"/>
				<path class="st0" d="M102.3,124.2C102.3,124.2,102.2,124.2,102.3,124.2C102.2,124.2,102.2,124.2,102.3,124.2
					C102.2,124.2,102.2,124.2,102.3,124.2C102.2,124.2,102.3,124.2,102.3,124.2L102.3,124.2z"/>
				<path class="st0" d="M87.5,108.9c-0.6-0.5-1.4-0.9-1.9-1.4c-0.3-0.3-0.6-0.9-0.4-1.3c0.1-0.3,0.8-0.5,1.2-0.7
					c0.1-0.1,0.4,0,0.7-0.1c-1-0.9-1.6,0-2.3,0.2c-0.3-0.6-0.6-1.2-1-2.1c0.3,3,2,4.9,4.8,6.4C88.1,109.5,87.9,109.2,87.5,108.9z"/>
				<path class="st0" d="M122.6,64.8c0.8,0.3,1.7,0.4,2.5,0.9c1.8,1,3.3,0.3,5-0.2c-0.4,0-0.9,0.2-1.3,0.2c-1.1-0.1-2.4-0.1-3.3-0.5
					C124.3,64.6,123.4,64.6,122.6,64.8z"/>
				<path class="st0" d="M113.2,86.8c-0.3-1.7-0.5-3.1-0.7-4.7C111.5,83.7,111.8,85.5,113.2,86.8z"/>
				<path class="st0" d="M94.8,67.6c-1.2-0.6-2.3-1.1-3.4-1.7c-0.3,0.5-0.5,0.8-0.9,1.4C92.1,67.4,93.4,67.5,94.8,67.6z"/>
				<path class="st0" d="M107.7,124.7c1.2-0.3,2.5-0.8,3.7-0.8c1.3,0,2.5,0.5,3.9,0.8C112.7,122.7,110.2,123.5,107.7,124.7z"/>
				<path class="st0" d="M127.7,116.5c-0.2,1.7,0.1,3.8,1.7,5.5C128.8,120.1,128.2,118.1,127.7,116.5z"/>
				<path class="st0" d="M66.2,79.6c0.1,0,0.1,0,0.2,0c0.2,1,0.4,1.9,0.6,2.9c0.2-0.5,0.1-0.9,0.2-1.4c0.1-1.1-1-2.8-2.2-3.1
					c0.3,0.8,0.6,1.6,1,2.5C66.1,80.1,66.2,79.9,66.2,79.6z"/>
				<path class="st0" d="M133.8,62.8c-2-0.2-4-0.4-6-0.6c0,0.1,0,0.2,0,0.3c2,0.2,4,0.5,6,0.7C133.7,63.1,133.7,63,133.8,62.8z"/>
				<path class="st0" d="M101.4,75c0.2-1.5-0.9-2.3-3.2-2.1C99.1,73.6,100.2,74.3,101.4,75z"/>
				<path class="st0" d="M112.3,117.6c0.6-0.9,1-1.6,1.4-2.4c-0.7-0.1-1.1-0.3-1.9-0.4C111.9,115.7,112.1,116.5,112.3,117.6z"/>
				<path class="st0" d="M142.5,104.3c0.4,0,0.7,0,1.1-0.1c0.5-0.1,1.1-0.4,1.5-0.2c1,0.4,1.7,0.1,2.3-0.8c-1.7,0.3-3.3,0.5-5,0.8
					C142.5,104.1,142.5,104.2,142.5,104.3z"/>
				<path class="st0" d="M128.9,106.1c0.3-0.6,0.5-1.4-0.4-1.7c-0.5-0.2-1.3,0.1-1.9,0.1c0,0.1,0.1,0.2,0.1,0.3
					c0.5,0.1,1.3-0.1,1.5,0.2c0.2,0.2,0.1,0.9-0.1,1.3c-0.2,0.6-0.5,1.1-0.8,1.6c0.1,0,0.2,0.1,0.3,0.1
					C128.1,107.5,128.6,106.8,128.9,106.1z"/>
				<path class="st0" d="M118.6,111.3c-1.9,0.8-3.6,1.5-5.4,2.3c0,0.1,0.1,0.1,0.1,0.2c1.5-0.5,3-1,4.5-1.5
					c-0.1,0.2-0.1,0.3-0.2,0.5c1.5-0.6,2.4-1.6,2.4-2.8c-0.5,0.6-0.9,1.2-1.4,1.8C118.6,111.6,118.6,111.4,118.6,111.3z"/>
				<path class="st0" d="M108.8,84.5c0.1,0,0.2,0,0.4,0c-0.1-1.4,0-2.8-0.5-4.2c-0.2,0-0.3,0.1-0.5,0.1
					C108.4,81.8,108.6,83.2,108.8,84.5z"/>
				<path class="st0" d="M152.3,101.7c0.3,0,0.9-0.1,1-0.3c0.3-0.9,0.6-1.8,0.8-2.6c-0.7,0.8-1.6,1.7-2.4,2.6
					C151.9,101.6,152.1,101.7,152.3,101.7z"/>
				<path class="st0" d="M121.9,58.7c2.3-0.2,4.5-0.5,6.9-0.7C126.4,57.4,124.1,58.1,121.9,58.7z"/>
				<path class="st0" d="M73.2,71.7c2-1,3.7-1.8,5.4-2.6c-0.1-0.1-0.1-0.2-0.2-0.3C76.7,69.7,74.6,69.9,73.2,71.7z"/>
				<path class="st0" d="M142.6,58c0.5,2,0.9,3.9,1.4,5.9C143.7,61.9,144.1,59.7,142.6,58z"/>
				<path class="st0" d="M146.8,91.9c-0.4,0.4-0.8,0.7-1.1,1.1c-0.9,1.4-2.4,2-4,2.5c1.6-0.1,2.9-0.7,3.9-1.8
					C146,93.2,146.4,92.5,146.8,91.9z"/>
				<path class="st0" d="M67,77.2c0.8-0.5,1.5-1.1,2.3-1.6c0.3-0.4,0.6-0.8,0.9-1.2C68.4,74.6,68,76.2,67,77.2z"/>
				<path class="st0" d="M128.3,123.8c0.1,0.1,0.2,0.2,0.3,0.3c1.2-1,2.3-2,3.5-3.1c-0.1-0.1-0.1-0.2-0.2-0.2
					C130.8,121.8,129.5,122.8,128.3,123.8z"/>
				<path class="st0" d="M123.7,119.2c0.7,1.3,1.4,2.7,2.1,4c0.1-0.1,0.3-0.1,0.4-0.2c-0.7-1.3-1.4-2.7-2.1-4
					C124,119.1,123.9,119.1,123.7,119.2z"/>
				<path class="st0" d="M138.5,98.3c-1.6-0.4-1.9-2.5-4-2.1c1.2,0.8,2.4,1.6,3.7,2.4C138.3,98.5,138.4,98.4,138.5,98.3z"/>
				<path class="st0" d="M95.2,123.8c0.1,0,0.2,0.1,0.3,0.1c0.7-1.2,1.3-2.4,1-3.9C96,121.3,95.6,122.5,95.2,123.8z"/>
				<path class="st0" d="M87.1,98.5c0.1,0.1,0.1,0.2,0.2,0.3c0.7-0.4,1.4-0.9,2.1-1.4c0.1,0.2,0.2,0.5,0.2,0.7
					c0.2-0.5,0.5-1,0.7-1.4c-0.1-0.1-0.2-0.2-0.2-0.2C89.1,97.1,88.1,97.8,87.1,98.5z"/>
				<path class="st0" d="M104.9,86.3c0.5-1.5,0.9-3,0.5-4.6c-0.2,0-0.3,0-0.5,0C104.9,83.2,104.9,84.7,104.9,86.3z"/>
				<path class="st0" d="M119.9,102c0.2,1,0.3,1.7,0.4,2.5C120.3,103.7,121.6,102.6,119.9,102z"/>
				<path class="st0" d="M79.1,68.6c1.4,0.5,2.8-0.2,4.2-0.2c-1.4-0.1-2.8-0.1-4.2-0.2C79.1,68.3,79.1,68.5,79.1,68.6z"/>
				<path class="st0" d="M139.2,107.7c-0.1-0.1-0.2-0.2-0.3-0.3c-1.1,0.9-2.2,1.7-3.2,2.6c0,0,0.1,0.1,0.1,0.1
					c0.6-0.3,1.2-0.7,1.8-1c0,0,0,0,0,0c0,0,0,0,0,0l0,0c0,0,0,0,0,0c0,0,0,0,0,0C138.2,108.7,138.7,108.2,139.2,107.7z"/>
				<path class="st0" d="M119.3,109.7c1-1.5,1.2-2.9,0.7-4.2C119.7,106.9,119.5,108.3,119.3,109.7z"/>
				<path class="st0" d="M102.2,124.2c-0.2,0.2-0.4,0.4-0.6,0.6c0.8-0.1,1.4-0.5,2.1-0.7c0.7-0.1,1.5,0,2.2,0
					C104.7,123.5,103.5,123.6,102.2,124.2z"/>
				<path class="st0" d="M118.7,75.6c0.3-0.6,0.9-1.3,0.7-1.8c-0.3-0.7-0.9,0.4-1.6,0.1C118.9,74.3,118.7,74.9,118.7,75.6z"/>
				<path class="st0" d="M76.6,105.7c0.1,0.1,0.2,0.2,0.3,0.3c1.2-0.9,2.3-1.8,3.5-2.6c-0.1-0.1-0.1-0.2-0.2-0.2
					C78.9,104,77.7,104.9,76.6,105.7z"/>
				<path class="st0" d="M90.8,122.7C90.8,122.7,90.8,122.7,90.8,122.7C90.8,122.7,90.8,122.7,90.8,122.7
					C90.8,122.7,90.8,122.7,90.8,122.7C90.8,122.7,90.8,122.7,90.8,122.7C90.8,122.7,90.8,122.7,90.8,122.7z"/>
				<path class="st0" d="M91.6,119.4c-0.5,1.2-1,2.4-1.5,3.7c0.2-0.2,0.4-0.3,0.7-0.5c0.4-1.1,0.8-2.1,1.2-3.2
					C91.8,119.5,91.7,119.4,91.6,119.4z"/>
				<path class="st0" d="M149.1,97.1c-0.9,0.6-1.6,1.1-2.3,1.7C147.9,98.7,148.9,98.5,149.1,97.1z"/>
				<path class="st0" d="M118.1,70.8c-0.1,0.1-0.2,0.2-0.2,0.2c0.9,0.6,1.7,1.3,2.7,1.9C120.4,71.5,118.9,71.6,118.1,70.8z"/>
				<path class="st0" d="M114.1,72.4c-0.4-0.1-0.8-0.3-1.3-0.4c0.2,1.2,0.4,2.1,0.5,3.1c0.1,0,0.2,0,0.2,0c-0.1-0.8-0.1-1.7-0.2-2.5
					c0.3,0,0.5,0,0.7,0C114.1,72.5,114.1,72.5,114.1,72.4z"/>
				<path class="st0" d="M120.3,64.2c1.7-0.5,3.3-1,4.9-1.5C123.4,62.6,121.8,63.4,120.3,64.2z"/>
				<path class="st0" d="M120.1,64.3C120.1,64.3,120.1,64.3,120.1,64.3c0.1,0,0.1,0,0.2,0C120.2,64.2,120.2,64.3,120.1,64.3z"/>
				<path class="st0" d="M95.5,113.4c-0.1,0.1-0.2,0.1-0.3,0.2c0.6,0.7,1.3,1.4,1.9,2.1c0.1,0,0.2-0.1,0.3-0.1c0-0.3,0-0.6,0.1-1
					c-0.2,0.2-0.3,0.3-0.4,0.4C96.6,114.5,96.1,113.9,95.5,113.4z"/>
				<path class="st0" d="M89.3,100.8c-0.6,0.7-1.3,1.4-1.9,2.1c0.5-0.6,1-1.3,1.5-1.9c-0.1-0.1-0.1-0.1-0.2-0.2
					c-1.2,1.1-2.4,2.3-3.6,3.4c0.1,0,0.1,0.1,0.2,0.1c0.6-0.4,1.1-0.7,1.7-1.1c-0.1,0.1-0.1,0.3-0.2,0.5c0.7-0.5,1.2-0.9,1.7-1.2
					c-0.6,0.6-1.1,1.3-1.7,2c1.1-0.8,2.5-1.2,2.9-2.7c-0.5,0.2-0.7,0.4-1,0.6c0.4-0.4,0.7-0.8,1.1-1.2
					C89.6,101,89.5,100.9,89.3,100.8z"/>
				<path class="st0" d="M121,119.5c-0.2,0.2-0.4,0.4-0.4,0.6c0.1,0.6,0.3,1.3,0.4,1.9c0.1,0,0.1,0,0.2,0c0-0.6,0.1-1.2,0.1-1.7
					c0-0.2,0.2-0.4,0.1-0.5C121.5,119.6,121.1,119.5,121,119.5z"/>
				<path class="st0" d="M101.7,84.4c-0.3-0.9-0.5-1.5-0.7-2.1C100.7,84.1,100.7,84.1,101.7,84.4z"/>
				<path class="st0" d="M144.3,57.5c-0.6-1-1.2-2-1.8-2.9c-0.1,0-0.2,0.1-0.3,0.1c0.6,1,1.2,2,1.8,2.9
					C144.1,57.6,144.2,57.5,144.3,57.5z"/>
			</g>
		</g>
	</g>
	<rect class="st1" width="216" height="216"/>
</g>
</svg>
