<?xml version="1.0" encoding="UTF-8"?>
<svg id="Layer_2" data-name="Layer 2" xmlns="http://www.w3.org/2000/svg" viewBox="0 0 683.64 372.77">
  <defs>
    <style>
      .cls-1 {
        stroke-width: 0px;
      }
    </style>
  </defs>
  <g id="Layer_1-2" data-name="Layer 1">
    <g>
      <g>
        <polygon class="cls-1" points="349.07 24.8 349.31 252.29 324.46 227.49 318.48 221.52 293.62 196.72 287.64 190.75 262.79 165.95 262.64 25.63 287.5 50.43 293.48 56.4 318.33 81.2 318.37 116.32 287.53 85.55 287.61 155.57 324.42 192.31 324.22 0 349.07 24.8"/>
        <polygon class="cls-1" points="126.97 99.31 113.57 131.79 110.31 139.56 96.92 172.04 93.72 179.8 80.26 212.34 77.07 220.04 63.67 252.59 50.15 220.14 46.94 212.37 33.47 179.86 30.2 172.11 16.74 139.65 13.52 131.89 0 99.44 13.46 66.9 16.65 59.14 30.05 26.67 43.57 59.12 30.12 91.65 26.92 99.42 30.13 107.11 43.66 139.63 46.87 147.38 60.39 179.84 63.61 187.6 66.8 179.83 80.2 147.35 83.39 139.59 96.85 107.04 100.04 99.34 96.83 91.58 83.24 59.07 96.7 26.6 110.23 59.04 113.5 66.8 126.97 99.31"/>
        <g>
          <path class="cls-1" d="M169.65,98.42l-3.21-7.76-13.53-32.45-13.39,32.48-3.2,7.77-13.46,32.54,13.52,32.45,3.21,7.76,13.46,32.45,13.46-32.48,3.19-7.77,13.46-32.48-13.53-32.51ZM153,138.73l-3.21-7.76,3.2-7.76,3.27,7.76-3.26,7.77Z"/>
          <path class="cls-1" d="M236.31,98.35l-3.21-7.76-13.52-32.45-13.39,32.48-3.2,7.77-13.45,32.54,13.52,32.45,3.21,7.76,13.46,32.45,13.46-32.48,3.2-7.77,13.46-32.48-13.52-32.51ZM219.66,138.66l-3.21-7.76,3.2-7.76,3.27,7.76-3.26,7.77Z"/>
        </g>
        <g>
          <path class="cls-1" d="M408.88,98.17l-3.21-7.76-13.53-32.45-13.39,32.48-3.2,7.77-13.46,32.54,13.52,32.45,3.21,7.76,13.46,32.45,13.46-32.48,3.19-7.77,13.46-32.48-13.53-32.51ZM392.23,138.48l-3.21-7.76,3.2-7.76,3.27,7.76-3.26,7.77Z"/>
          <path class="cls-1" d="M475.54,98.1l-3.21-7.76-13.52-32.45-13.39,32.48-3.2,7.77-13.45,32.54,13.52,32.45,3.21,7.76,13.46,32.45,13.46-32.48,3.2-7.77,13.46-32.48-13.52-32.51ZM458.89,138.41l-3.21-7.76,3.2-7.76,3.27,7.76-3.26,7.77Z"/>
        </g>
      </g>
      <g>
        <path class="cls-1" d="M208.95,346.69c-5.38-5.47-8.12-13.22-8.12-23.17,0-13.95,3.37-28.46,10.21-43.5,6.75-14.96,15.78-27.82,27-38.67,11.04-10.49,22.89-15.69,35.57-15.69,3.56,0,6.29.73,8.21,2.1,1.82,1.46,3.1,3.19,3.74,5.2.64,2.01,1,3.92,1,5.75l-.18,3.01c-.46,1-1,1.46-1.64,1.46-.91,0-1.37-.46-1.46-1.46,0-.64.18-1.09.46-1.46.09-.27.18-.73.37-1.28.18-.55.27-1.28.36-2.19,0-2.83-1.19-5.11-3.47-7.02-1.46-1.46-3.92-2.19-7.39-2.19-7.11,0-14.04,2.19-20.7,6.57-6.66,4.38-12.86,10.12-18.6,17.24-5.75,7.11-10.76,14.87-15.05,23.35s-7.66,17.05-10.12,25.54c-2.46,8.57-3.74,16.32-3.74,23.26,0,8.85,2.1,15.96,6.29,21.43,4.1,5.47,9.67,8.21,16.51,8.21,8.03,0,15.41-2.64,22.25-7.84,12.04-9.58,21.8-21.52,29.37-35.93l4.2-8.21c.18-.18.46-.27.73-.27.64,0,1,.37,1,1-5.65,10.67-10.94,19.52-15.96,26.45-5.02,7.02-11.13,13.22-18.15,18.61-7.11,5.38-14.96,8.12-23.44,8.12-7.39-.09-13.86-2.92-19.24-8.39Z"/>
        <path class="cls-1" d="M296.5,319.7c0-2.01.73-4.2,2.1-6.66,1-1.82,1.46-3.28,1.46-4.38,0-.82-.46-1.64-1.28-2.64-1.37-1.73-2.1-3.56-2.1-5.29,0-1.92.91-3.56,2.74-4.83,1.73-1.28,3.47-2.01,5.02-2.1.64,0,1.09.18,1.55.55.37.46.55.91.55,1.37,0,.64-.27,1.28-.91,2.1-1,1.46-2.83,3.1-5.38,5.02.46.91,1.09,1.73,1.82,2.55,1.28,1.46,1.92,2.74,1.92,3.92,0,1.28-.46,2.83-1.46,4.56-1.19,2.55-1.73,4.65-1.73,6.2s.91,2.37,2.74,2.46c11.04,0,26.91-6.75,47.61-20.16l.37-.09c.73,0,1.09.37,1.09,1.19l-.46.55c-20.7,13.59-36.85,20.34-48.61,20.34-4.56,0-6.93-1.55-7.02-4.65ZM301.33,297.35c-1.19,1.19-1.73,2.28-1.73,3.37v.18c1.09-.73,2.1-1.64,3.28-2.83,1.09-1.19,1.64-1.92,1.64-2.37-1,0-2.01.55-3.19,1.64Z"/>
        <path class="cls-1" d="M347.84,310.21c0-3.01.82-5.65,2.55-8.03,1.73-2.28,4.19-3.56,7.39-3.74.91,0,1.73.27,2.46.73.73.55,1.09,1.19,1.09,2.1,0,2.1-1,3.56-3.1,4.38-2.1.82-4.1,1.28-6.11,1.28-.18.82-.27,1.82-.27,3.01,0,2.01.55,3.65,1.73,4.83,1.09,1.19,2.65,1.82,4.56,1.82,4.65,0,9.58-.64,14.68-2.01,5.2-1.28,10.49-3.1,15.78-5.29,5.38-2.19,10.67-4.47,16.05-7.02.27,0,.55.09.82.18.27.09.46.36.46.82,0,.09,0,.27-.09.46-.09.18-.27.27-.37.27-.09.09-1.73.91-4.83,2.37-3.1,1.46-7.02,3.1-11.86,5.02-4.83,1.82-9.94,3.56-15.41,4.92-5.47,1.46-10.49,2.19-15.23,2.19-6.57,0-9.94-2.74-10.31-8.3ZM357.23,304.1c1.46-.64,2.19-1.55,2.19-2.83,0-.64-.55-.91-1.64-.91-2.19,0-3.92,1.55-5.11,4.74,1.55-.09,3.1-.36,4.56-1Z"/>
        <path class="cls-1" d="M466.49,289.42c-5.93,8.48-12.22,15.41-18.7,20.61-6.57,5.29-13.04,7.93-19.33,7.93-7.39,0-11.4-2.83-12.22-8.57-1.09,1.19-2.92,2.83-5.47,4.83-2.55,2.1-4.74,3.1-6.48,3.1-3.28,0-5.02-1.92-5.2-5.75,0-1.92.73-4.2,2.1-6.66,1.37-2.46,3.19-4.56,5.47-6.38,2.19-1.82,4.56-2.74,7.02-2.74,1.92,0,3.28.55,4.29,1.73.91,1.19,1.37,2.46,1.37,4.01,0,.55-.27.82-.91.82-.18,0-.36-.09-.64-.18-.27-.09-.46-.37-.46-.73,0-1.64-1-2.46-3.1-2.55-1.64,0-3.37.82-5.11,2.46-1.73,1.64-3.28,3.56-4.47,5.65-1.19,2.1-1.82,3.92-1.82,5.29,0,1.92.55,2.92,1.55,3.01,1.82,0,4.29-1.46,7.48-4.38,1.92-1.82,3.19-3.1,3.83-3.83l.64-.64c.27-.46.82-.73,1.64-.73,1.28,0,1.92.55,1.92,1.64v.09c0,5.75,3.1,8.57,9.39,8.57,4.2,0,8.66-1.55,13.32-4.74,4.65-3.1,9.3-7.3,13.95-12.59,4.56-5.2,8.94-11.13,13.04-17.6,4.1-6.47,7.57-12.86,10.49-19.24-12.22,0-23.53,2.74-33.93,8.21-.09.09-.27.18-.36.18-.18.09-.37.09-.55.09-1.19,0-1.82-.55-1.82-1.73,0-.82.55-1.55,1.64-2.01,11.31-4.65,23.35-6.93,36.03-6.93,3.56-7.75,6.2-15.32,8.12-22.53.27-.73.64-1.19,1.09-1.46.46-.18.91-.27,1.55-.27.91,0,1.55.36,2.01,1.09.09.09.27.27.37.46.09.27.09.55.09.91l-.18.82-7.48,21.16c10.31.46,21.61,1.92,34.02,4.29.46.09.64.46.64,1,0,.46-.27.82-.91.91-12.49-2.37-23.99-3.74-34.47-4.2-19.06,54.45-28.64,90.93-28.64,109.44,0,.91-.46,1.37-1.37,1.46-.91,0-1.37-.55-1.37-1.55,0-9.85,3.19-26.17,9.58-48.97,6.2-21.98,11.95-41.5,17.24-58.64-4.38,9.3-9.3,17.88-14.87,25.81Z"/>
        <path class="cls-1" d="M489.56,310.48c0-3.74,1.19-7.21,3.65-10.4.36-.64,1-1,2.01-1,.73,0,1.28.18,1.73.46.46.27.73.64.73,1.09l-.09.46c-2.01,3.1-3.01,6.29-3.01,9.67,0,1.73.55,3.28,1.55,4.56,1.09,1.37,2.74,2.1,4.92,2.28,3.74,0,8.12-.73,13.32-2.28,5.11-1.55,10.12-3.37,15.05-5.38s9.03-3.74,12.4-5.38l5.2-2.37c.73,0,1.09.27,1.09.91,0,.18,0,.36-.09.55-.09.18-.27.27-.37.27-.18.18-2.01,1-5.29,2.46-3.28,1.55-7.39,3.37-12.22,5.38-12.59,5.11-22.25,7.66-29,7.66-7.57,0-11.49-3.01-11.58-8.94ZM495.76,292.43c0-2.92,1-4.56,2.92-5.02.91,0,1.73.37,2.37,1.19.64.73,1,1.55,1,2.37,0,1.09-.46,2.19-1.37,3.19-.91,1-1.82,1.55-2.83,1.55-1.37,0-2.1-1.09-2.1-3.28Z"/>
        <path class="cls-1" d="M549.76,317.14c-1.46-1.82-2.64-4.01-3.47-6.48-.82-2.46-1.28-4.65-1.28-6.75,0-1,.18-2.01.46-2.92.27-.91,1.19-1.37,2.64-1.37,1.73,0,2.64.55,2.74,1.55-.46,2.1-.73,4.01-.73,5.75,0,1.37.18,2.92.55,4.65.27,1.73.82,3.28,1.46,4.56.64,1.28,1.46,1.92,2.37,1.92,1.64,0,4.29-1.55,8.03-4.65,3.65-3.01,7.11-6.57,10.4-10.67.09-.46.27-1.09.64-1.82.36-.64.82-1.28,1.28-1.82.46-.55.91-.82,1.37-.82.27.09.46.18.73.27.18.09.37.09.55.18.09.09.18.36.18.64s-.09.55-.27.73c-1.09,1.19-1.64,2.28-1.64,3.47,0,2.28,1.28,4.29,3.92,5.93,2.55,1.64,5.75,2.55,9.49,2.64,11.76,0,23.07-2.46,34.02-7.39l6.02-2.55c.73,0,1.09.27,1.09.91,0,.46-.55.91-1.64,1.37l-4.74,2.01c-11.49,5.02-23.07,7.57-34.75,7.57-3.83,0-7.3-.82-10.49-2.55-3.19-1.73-5.11-3.65-5.65-5.93-3.01,3.83-6.29,7.21-10.03,10.03-3.74,2.92-6.57,4.38-8.48,4.38-1.73,0-3.37-.91-4.74-2.83Z"/>
        <path class="cls-1" d="M625.54,310.21c0-3.01.82-5.65,2.55-8.03,1.73-2.28,4.2-3.56,7.39-3.74.91,0,1.73.27,2.46.73.73.55,1.09,1.19,1.09,2.1,0,2.1-1,3.56-3.1,4.38-2.1.82-4.1,1.28-6.11,1.28-.18.82-.27,1.82-.27,3.01,0,2.01.55,3.65,1.73,4.83,1.09,1.19,2.65,1.82,4.56,1.82,4.65,0,9.58-.64,14.68-2.01,5.2-1.28,10.49-3.1,15.78-5.29,5.38-2.19,10.67-4.47,16.05-7.02.27,0,.55.09.82.18.27.09.46.36.46.82,0,.09,0,.27-.09.46-.09.18-.27.27-.37.27-.09.09-1.73.91-4.83,2.37-3.1,1.46-7.02,3.1-11.86,5.02-4.83,1.82-9.94,3.56-15.41,4.92-5.47,1.46-10.49,2.19-15.23,2.19-6.57,0-9.94-2.74-10.31-8.3ZM634.93,304.1c1.46-.64,2.19-1.55,2.19-2.83,0-.64-.55-.91-1.64-.91-2.19,0-3.92,1.55-5.11,4.74,1.55-.09,3.1-.36,4.56-1Z"/>
      </g>
    </g>
  </g>
</svg>