<?xml version="1.0" encoding="UTF-8"?>
<svg id="Layer_2" data-name="Layer 2" xmlns="http://www.w3.org/2000/svg" viewBox="0 0 71.18 128.07">
  <defs>
    <style>
      .cls-1, .cls-2 {
        stroke-width: 0px;
      }

      .cls-2 {
        fill: #f0f0f0;
      }
    </style>
  </defs>
  <g id="Layer_1-2" data-name="Layer 1">
    <g>
      <polygon class="cls-1" points="27.88 108.01 18.82 86.11 17.04 81.9 9.72 64.26 7.97 60.04 .54 42.21 7.94 24.33 17.41 1.34 25.31 20.28 17.92 38.16 16.26 42.19 17.93 46.18 25.28 63.86 27.02 68.07 34.38 85.71 35.66 88.81 45.95 63.84 54.93 42.15 53.26 38.12 45.79 20.26 53.65 1.3 61.47 20.05 63.24 24.27 70.64 42.13 63.28 59.98 61.51 64.2 52.49 86.08 45.18 103.77 43.44 107.96 35.7 126.76 27.88 108.01"/>
      <path class="cls-2" d="M53.65,2.61l7.35,17.64,1.78,4.22,7.32,17.67-7.28,17.66-1.77,4.22-7.28,17.66-1.74,4.22-7.32,17.69-1.74,4.19-7.28,17.69-7.35-17.64-1.75-4.22-7.32-17.67-1.78-4.22-7.32-17.64-1.75-4.22L1.08,42.21l7.32-17.69,1.74-4.22L17.42,2.64l7.35,17.64-7.31,17.69-1.74,4.22,1.75,4.18,7.35,17.67,1.75,4.22,7.35,17.64,1.75,4.22,1.74-4.22,7.28-17.66,1.74-4.22,7.32-17.69,1.74-4.19-1.74-4.22-7.39-17.67,7.32-17.66M53.65,0l-.92,2.22-7.32,17.66-.16.38.16.38,7.39,17.67,1.59,3.83-1.58,3.81-7.32,17.69-1.74,4.22-7.28,17.66-.82,1.98-.82-1.98-7.35-17.64-1.74-4.21-7.35-17.68-1.59-3.8,1.58-3.84,7.31-17.68.16-.38-.16-.38L18.34,2.26,17.41.03l-.92,2.23-7.28,17.65-1.74,4.22L.16,41.82l-.16.38.16.38,7.35,17.64,1.74,4.22,7.32,17.64,1.78,4.22,7.32,17.67,1.75,4.22,7.35,17.64.93,2.23.92-2.23,7.28-17.69,1.74-4.19,7.32-17.69,1.74-4.22,7.28-17.66,1.77-4.22,7.28-17.66.16-.38-.16-.38-7.32-17.67-1.78-4.22-7.35-17.63-.93-2.22h0Z"/>
    </g>
  </g>
</svg>